<svg width="1200" height="384" viewBox="0 0 1200 384" fill="none" xmlns="http://www.w3.org/2000/svg">
<path d="M699.445 88.0924C699.309 88.0924 699.172 88.0469 699.058 87.9529C698.8 87.7394 698.765 87.3574 698.979 87.0999C699.28 86.6969 701.074 83.5614 701.877 81.9314C700.57 82.4544 698.186 83.5514 696.031 84.6019C695.734 84.7479 695.369 84.6254 695.222 84.3234C695.075 84.0224 695.199 83.6599 695.501 83.5134C702.867 79.9214 703.047 80.2009 703.367 80.7179C703.913 81.6009 699.956 87.8189 699.911 87.8734C699.792 88.0179 699.619 88.0924 699.445 88.0924Z" fill="#060606"/>
<path d="M690.802 90.2385C690.802 90.2385 688.98 81.0435 694.171 81.495C701.361 82.1205 708.841 98.226 697.368 105.01C685.895 111.794 678.731 102.761 678.731 102.761L685.012 99.5615C685.012 99.5615 679.096 96.4695 678.622 92.841C678.147 89.2125 682.701 91.372 682.701 91.372C682.701 91.372 676.198 84.3615 679.763 83.2125C683.329 82.0635 690.802 90.2385 690.802 90.2385Z" fill="#FD5900"/>
<path d="M695.584 88.054C694.368 88.054 692.907 86.741 692.448 86.296C692.208 86.0635 692.202 85.68 692.434 85.4395C692.666 85.2005 693.049 85.1935 693.29 85.4255C693.984 86.095 694.969 86.7625 695.469 86.8405C695.34 86.3485 694.7 85.251 693.977 84.3135C693.774 84.0485 693.823 83.668 694.088 83.464C694.352 83.259 694.732 83.308 694.938 83.574C695.707 84.5735 696.954 86.3935 696.653 87.3595C696.559 87.6645 696.336 87.8875 696.029 87.987C695.886 88.033 695.737 88.054 695.584 88.054Z" fill="#060606"/>
<path d="M686.751 99.239C686.664 99.239 686.575 99.22 686.492 99.1805C686.058 98.9755 682.245 97.1075 681.903 94.878C681.79 94.14 682.136 93.7655 682.353 93.6075C682.99 93.142 684.15 93.3745 685.174 93.7345C684.198 91.614 684.084 90.306 684.832 89.8395C685.149 89.642 686.113 89.0375 691.553 94.065C691.798 94.292 691.813 94.6755 691.586 94.921C691.36 95.1665 690.976 95.1825 690.729 94.9545C688.81 93.1805 686.414 91.2825 685.539 90.9605C685.569 91.5815 686.19 93.1775 686.997 94.6555C687.125 94.888 687.085 95.176 686.901 95.3665C686.719 95.558 686.432 95.6055 686.194 95.488C684.921 94.8515 683.439 94.4205 683.085 94.5765C683.09 94.589 683.09 94.629 683.099 94.694C683.285 95.902 685.597 97.4155 687.009 98.0855C687.312 98.2285 687.441 98.59 687.298 98.8925C687.195 99.111 686.977 99.239 686.751 99.239Z" fill="#060606"/>
<path d="M690.716 104.24C690.668 104.24 690.638 104.24 690.625 104.24C690.29 104.232 690.025 103.956 690.032 103.622C690.039 103.287 690.34 103.049 690.651 103.028C690.679 103.029 695.591 103.086 698.482 99.943C700.208 98.068 700.906 95.411 700.56 92.0445C700.525 91.712 700.767 91.414 701.099 91.3795C701.426 91.3525 701.73 91.587 701.764 91.92C702.15 95.6505 701.343 98.628 699.367 100.77C696.29 104.107 691.466 104.24 690.716 104.24Z" fill="#060606"/>
<path d="M499.435 198.643C499.259 198.643 499.085 198.565 498.967 198.413C498.924 198.358 495.178 192.009 495.755 191.146C496.094 190.642 496.275 190.363 503.524 194.205C503.819 194.361 503.932 194.728 503.775 195.024C503.619 195.319 503.253 195.432 502.956 195.275C500.837 194.151 498.492 192.974 497.203 192.408C497.95 194.064 499.638 197.26 499.931 197.68C500.121 197.95 500.065 198.328 499.8 198.523C499.69 198.603 499.562 198.643 499.435 198.643Z" fill="#060606"/>
<path d="M507.991 201.085C507.991 201.085 510.123 191.957 504.92 192.233C497.712 192.615 489.692 208.458 500.929 215.626C512.166 222.795 519.631 214.009 519.631 214.009L513.462 210.599C513.462 210.599 519.479 207.709 520.076 204.099C520.674 200.489 516.049 202.493 516.049 202.493C516.049 202.493 522.786 195.707 519.261 194.437C515.737 193.168 507.991 201.085 507.991 201.085Z" fill="#FD5900"/>
<path d="M503.345 198.741C503.171 198.741 503.003 198.715 502.844 198.657C502.539 198.548 502.325 198.317 502.241 198.009C501.973 197.033 503.281 195.256 504.083 194.284C504.297 194.026 504.678 193.99 504.936 194.203C505.194 194.416 505.23 194.798 505.017 195.056C504.249 195.986 503.582 197.045 503.44 197.531C503.942 197.471 504.951 196.837 505.668 196.19C505.915 195.965 506.298 195.985 506.523 196.234C506.747 196.482 506.728 196.865 506.479 197.089C506.013 197.511 504.549 198.741 503.345 198.741Z" fill="#060606"/>
<path d="M511.755 210.218C511.521 210.218 511.298 210.082 511.199 209.853C511.066 209.546 511.207 209.19 511.513 209.057C512.949 208.433 515.313 206.997 515.538 205.799C515.558 205.693 515.546 205.653 515.546 205.652C515.271 205.493 513.737 205.881 512.418 206.488C512.176 206.598 511.892 206.539 511.716 206.343C511.538 206.146 511.509 205.857 511.644 205.629C512.5 204.178 513.176 202.604 513.225 201.985C512.342 202.276 509.882 204.093 507.904 205.801C507.651 206.018 507.268 205.993 507.05 205.739C506.831 205.486 506.859 205.103 507.112 204.885C512.71 200.05 513.658 200.68 513.971 200.888C514.704 201.38 514.545 202.684 513.498 204.77C514.533 204.446 515.7 204.253 516.322 204.738C516.534 204.903 516.867 205.29 516.729 206.023C516.312 208.24 512.437 209.977 511.997 210.168C511.917 210.202 511.835 210.218 511.755 210.218Z" fill="#060606"/>
<path d="M507.702 215.084C507.7 215.084 507.698 215.084 507.695 215.084C507.473 215.081 502.224 214.978 499.074 211.321C497.171 209.113 496.468 206.11 496.979 202.395C497.025 202.063 497.337 201.833 497.661 201.878C497.992 201.924 498.224 202.229 498.178 202.561C497.717 205.912 498.325 208.592 499.986 210.524C502.773 213.767 507.661 213.873 507.711 213.873C508.044 213.878 508.312 214.152 508.308 214.487C508.303 214.818 508.033 215.084 507.702 215.084Z" fill="#060606"/>
<path d="M504.8 100.209H504.796C504.461 100.207 504.192 99.9349 504.194 99.6004L504.255 89.4064C504.257 89.0729 504.528 88.8044 504.86 88.8044H504.864C505.199 88.8069 505.468 89.0789 505.466 89.4139L505.405 99.6079C505.403 99.9404 505.132 100.209 504.8 100.209Z" fill="#060606"/>
<path d="M500.691 97.9839C500.5 97.9839 500.312 97.8938 500.194 97.7248C500.002 97.4503 500.07 97.0728 500.344 96.8813L508.762 91.0124C509.033 90.8229 509.412 90.8868 509.605 91.1623C509.797 91.4368 509.729 91.8144 509.455 92.0059L501.037 97.8748C500.932 97.9483 500.811 97.9839 500.691 97.9839Z" fill="#060606"/>
<path d="M508.081 98.4124C507.92 98.4124 507.761 98.3484 507.641 98.2229L501.277 91.4974C501.047 91.2549 501.058 90.8704 501.3 90.6409C501.544 90.4104 501.926 90.4234 502.157 90.6644L508.521 97.3899C508.751 97.6324 508.74 98.0169 508.498 98.2464C508.381 98.3579 508.23 98.4124 508.081 98.4124Z" fill="#060606"/>
<path d="M499.539 95.0039C499.207 95.0039 498.937 94.7364 498.934 94.4039C498.93 94.0689 499.199 93.7959 499.534 93.7924L509.338 93.6989H509.342C509.677 93.6989 509.946 93.9664 509.95 94.2989C509.953 94.6339 509.685 94.9069 509.35 94.9104L499.545 95.0039H499.539Z" fill="#060606"/>
<path d="M697.762 292.675C697.314 292.675 696.889 292.675 695.709 287.975C691.727 287.208 691.378 286.74 691.261 286.584C691.147 286.432 691.099 286.155 691.151 285.974C691.223 285.718 691.39 285.127 695.941 283.292C697.576 279.031 698.129 279.031 698.498 279.031C698.69 279.031 698.953 279.168 699.067 279.322C699.359 279.715 699.624 280.735 700.025 282.368C700.152 282.879 700.303 283.496 700.391 283.767C700.63 283.874 701.156 284.062 701.593 284.219C703.934 285.059 704.537 285.344 704.647 285.903C704.687 286.113 704.581 286.418 704.422 286.561C703.948 286.986 701.686 287.827 700.499 288.249C698.572 292.634 698.16 292.655 697.796 292.674C697.786 292.675 697.773 292.675 697.762 292.675ZM692.801 286.061C693.597 286.29 695.048 286.62 696.314 286.856C696.547 286.9 696.734 287.076 696.791 287.306C697.115 288.618 697.538 290.114 697.842 290.966C698.284 290.172 698.952 288.766 699.495 287.523C699.562 287.369 699.69 287.249 699.848 287.194C700.93 286.813 702.152 286.346 702.912 286.013C702.38 285.788 701.654 285.528 701.183 285.359C699.848 284.881 699.596 284.777 699.425 284.547C699.275 284.344 699.181 284.008 698.849 282.657C698.723 282.149 698.532 281.369 698.361 280.786C697.965 281.543 697.41 282.831 696.978 283.97C696.918 284.129 696.794 284.255 696.636 284.318C695.232 284.879 693.637 285.594 692.801 286.061Z" fill="#060606"/>
<path d="M656.784 224.914C656.784 224.914 675.661 238.704 688.058 243.131C696.837 246.267 686.144 289.269 678.318 290.652C624.893 300.097 614.563 294.194 614.114 290.633C613.299 284.173 648.32 224.914 656.784 224.914Z" fill="white"/>
<path d="M591.586 202.463C591.586 202.463 641.646 278.423 643.244 277.924C644.841 277.424 661.351 262.432 662.948 262.432C664.546 262.432 611.291 191.969 609.693 190.47C608.096 188.971 589.989 199.465 591.586 202.463Z" fill="#060606"/>
<path d="M575.714 80C538.582 80 508.481 110.101 508.481 147.233C508.481 184.364 538.582 214.465 575.714 214.465C612.845 214.465 642.946 184.364 642.946 147.233C642.946 110.101 612.845 80 575.714 80ZM575.714 192.908C550.488 192.908 530.038 172.459 530.038 147.233C530.038 122.007 550.488 101.557 575.714 101.557C600.94 101.557 621.389 122.007 621.389 147.233C621.389 172.459 600.94 192.908 575.714 192.908Z" fill="#FFA06E"/>
<path d="M601.28 226.602C601.28 226.602 631.045 216.086 634.043 228.964C636.485 239.456 598.487 246.359 602.393 242.452C606.3 238.546 636.25 228.779 643.488 238.114C649.72 246.151 610.207 254.823 607.602 256.125C604.998 257.427 647.308 239.92 653.819 249.035C660.33 258.15 617.368 273.054 617.368 273.054C617.368 273.054 651.876 254.172 655.132 263.938C658.387 273.705 626.515 295.689 614.113 293.238C596.557 289.767 604.526 280.027 604.526 280.027C604.526 280.027 597.738 282.978 594.491 275.009C591.017 266.482 601.87 262.908 601.87 262.908C601.87 262.908 590.856 267.308 589.553 258.844C588.251 250.379 594.999 249.21 594.999 249.21C594.999 249.21 587.417 252.87 585.464 242.452C583.511 232.034 601.28 226.602 601.28 226.602Z" fill="white"/>
<path d="M662.294 277.611C662.294 277.611 629.088 267.193 626.484 252.869C623.879 238.545 636.25 228.779 636.25 228.779C636.25 228.779 621.601 216.733 621.926 204.037C622.001 201.126 633.646 204.688 650.575 219.013C667.503 233.337 675.968 252.219 674.014 261.985C672.061 271.751 662.294 277.611 662.294 277.611Z" fill="white"/>
<path d="M663.148 270.295C663.12 270.295 663.091 270.293 663.063 270.289C662.926 270.27 649.198 268.208 645.002 254.42C644.173 251.696 643.516 249.203 642.881 246.79C640.378 237.292 638.569 230.429 629.763 223.527C629.5 223.321 629.454 222.94 629.66 222.677C629.866 222.414 630.247 222.367 630.51 222.574C639.637 229.727 641.586 237.121 644.052 246.482C644.685 248.883 645.339 251.366 646.162 254.068C650.128 267.1 663.101 269.071 663.231 269.089C663.562 269.136 663.793 269.442 663.747 269.773C663.705 270.076 663.445 270.295 663.148 270.295Z" fill="#060606"/>
<path d="M601.575 247.574C601.327 247.574 601.094 247.42 601.005 247.172C600.893 246.858 601.056 246.511 601.371 246.398C601.65 246.298 629.281 236.352 633.841 229.798C634.031 229.524 634.411 229.457 634.683 229.646C634.959 229.837 635.026 230.216 634.835 230.49C630.057 237.359 602.933 247.126 601.781 247.538C601.712 247.563 601.643 247.574 601.575 247.574Z" fill="#060606"/>
<path d="M604.527 263.218C604.275 263.218 604.04 263.06 603.955 262.808C603.846 262.491 604.015 262.147 604.331 262.039C604.448 261.999 616.1 257.988 625.244 252.764C634.973 247.205 640.361 239.611 639.292 236.007C638.551 233.511 634.994 233.186 632.143 233.35C631.81 233.363 631.523 233.114 631.503 232.78C631.483 232.447 631.738 232.16 632.072 232.141C638.035 231.792 639.919 233.864 640.452 235.663C641.848 240.364 635.432 248.338 625.845 253.816C616.6 259.099 604.841 263.145 604.723 263.186C604.659 263.207 604.592 263.218 604.527 263.218Z" fill="#060606"/>
<path d="M608.658 280.633C608.365 280.633 608.108 280.419 608.061 280.12C608.01 279.789 608.237 279.48 608.567 279.428C608.648 279.416 616.831 278.048 633.052 267.828C642.373 261.955 644.761 254.068 643.035 249.223C641.995 246.307 639.6 244.783 636.57 245.154C636.24 245.196 635.936 244.959 635.896 244.627C635.854 244.295 636.091 243.993 636.423 243.952C639.968 243.508 642.95 245.376 644.177 248.816C646.059 254.101 643.583 262.625 633.698 268.852C617.217 279.235 609.089 280.573 608.752 280.625C608.72 280.63 608.689 280.633 608.658 280.633Z" fill="#060606"/>
<path d="M619.579 291.554C619.295 291.554 619.042 291.353 618.986 291.064C618.921 290.735 619.135 290.417 619.464 290.353C619.769 290.294 649.964 284.224 650.428 269.368C650.505 266.941 649.89 265.252 648.601 264.35C646.07 262.575 641.568 264.074 639.751 264.801C639.44 264.925 639.088 264.774 638.964 264.464C638.84 264.153 638.99 263.801 639.301 263.676C641.301 262.876 646.28 261.245 649.295 263.357C650.941 264.509 651.73 266.544 651.64 269.406C651.434 275.999 645.808 281.924 635.37 286.54C627.595 289.978 619.774 291.527 619.696 291.542C619.657 291.55 619.618 291.554 619.579 291.554Z" fill="#060606"/>
<path d="M618.67 235.738C617.139 235.738 615.751 235.557 614.778 235.209C614.037 234.945 613.876 234.427 613.846 234.142C613.622 232.041 619.806 227.965 622.475 226.311C622.757 226.137 623.132 226.222 623.309 226.506C623.485 226.79 623.397 227.163 623.114 227.34C618.701 230.076 614.942 233.186 615.05 234.008C615.057 234.008 615.095 234.036 615.185 234.068C617.98 235.066 624.932 234.45 627.124 232.059C627.351 231.811 627.736 231.797 627.98 232.021C628.226 232.248 628.242 232.63 628.016 232.877C626.221 234.835 622.091 235.738 618.67 235.738Z" fill="#060606"/>
<path d="M624.873 247.937C622.409 247.937 621.598 247.07 621.351 246.332C620.374 243.402 628.228 238.814 629.812 237.923C630.106 237.759 630.472 237.864 630.637 238.155C630.801 238.446 630.697 238.816 630.406 238.98C626.263 241.308 622.063 244.635 622.501 245.949C622.668 246.448 623.61 246.748 625.016 246.724C628.136 246.678 631.9 245.221 632.198 244.23C632.294 243.909 632.636 243.73 632.952 243.824C633.272 243.92 633.455 244.258 633.358 244.578C632.772 246.531 627.96 247.892 625.034 247.935C624.98 247.937 624.925 247.937 624.873 247.937Z" fill="#060606"/>
<path d="M632.352 261.254C632.206 261.254 632.067 261.242 631.937 261.216C631.443 261.118 631.062 260.844 630.834 260.426C629.39 257.778 636.218 250.623 637.602 249.215C637.836 248.976 638.219 248.975 638.458 249.208C638.697 249.442 638.7 249.826 638.465 250.065C634.784 253.811 631.226 258.615 631.897 259.846C631.937 259.92 631.999 259.993 632.174 260.028C633.709 260.332 638.129 257.344 640.557 255.387C640.815 255.177 641.196 255.216 641.409 255.478C641.618 255.739 641.577 256.12 641.316 256.33C640.663 256.856 635.123 261.254 632.352 261.254Z" fill="#060606"/>
<path d="M639.653 277.391C638.457 277.391 637.368 277.023 636.63 276.016C633.97 272.389 641.948 266.073 642.866 265.365C643.128 265.161 643.51 265.209 643.715 265.475C643.92 265.74 643.871 266.12 643.606 266.325C641.522 267.933 635.945 273.034 637.607 275.3C639.28 277.585 644.473 274.872 646.332 273.635C646.61 273.448 646.986 273.525 647.172 273.803C647.357 274.081 647.282 274.457 647.004 274.643C646.777 274.793 642.83 277.391 639.653 277.391Z" fill="#060606"/>
<path d="M634.599 213.609C632.389 213.609 630.075 211.818 627.717 208.28C627.531 208.001 627.607 207.626 627.885 207.44C628.16 207.255 628.538 207.327 628.725 207.608C630.884 210.846 633.007 212.504 634.771 212.392C636.737 212.275 637.87 210.081 637.881 210.059C638.03 209.762 638.393 209.64 638.694 209.79C638.992 209.94 639.113 210.303 638.963 210.602C638.905 210.717 637.516 213.435 634.852 213.601C634.768 213.606 634.684 213.609 634.599 213.609Z" fill="#060606"/>
<path d="M644.497 223.525C644.267 223.525 644.047 223.393 643.945 223.17C643.807 222.867 643.941 222.508 644.243 222.369C644.269 222.357 646.467 221.297 648.073 217.886C648.215 217.583 648.579 217.454 648.878 217.596C649.181 217.738 649.311 218.099 649.168 218.402C647.358 222.249 644.853 223.422 644.747 223.47C644.666 223.508 644.581 223.525 644.497 223.525Z" fill="#060606"/>
<path d="M646.233 228.95C646.049 228.95 645.865 228.865 645.747 228.705C645.547 228.436 645.604 228.056 645.873 227.857C647.434 226.7 651.487 223.126 651.487 220.531C651.487 220.196 651.758 219.925 652.093 219.925C652.428 219.925 652.698 220.196 652.698 220.531C652.698 224.265 646.842 228.646 646.594 228.831C646.485 228.911 646.359 228.95 646.233 228.95Z" fill="#060606"/>
<path d="M606.727 239.343C606.588 239.343 606.447 239.295 606.333 239.197C601.582 235.125 603.896 231.526 603.92 231.49C604.107 231.211 604.484 231.138 604.76 231.322C605.037 231.507 605.112 231.88 604.93 232.158C604.859 232.27 603.217 234.932 607.121 238.277C607.376 238.496 607.405 238.878 607.187 239.131C607.068 239.271 606.898 239.343 606.727 239.343Z" fill="#060606"/>
<path d="M602.329 239.971C602.19 239.971 602.049 239.923 601.935 239.825C597.186 235.753 599.498 232.154 599.522 232.118C599.709 231.838 600.086 231.766 600.362 231.95C600.639 232.135 600.714 232.509 600.532 232.787C600.452 232.913 598.831 235.568 602.723 238.906C602.978 239.124 603.007 239.506 602.789 239.76C602.669 239.9 602.5 239.971 602.329 239.971Z" fill="#060606"/>
<path d="M608.823 257.773C608.683 257.773 608.542 257.725 608.429 257.628C603.678 253.556 605.991 249.957 606.014 249.921C606.201 249.641 606.579 249.569 606.854 249.753C607.131 249.937 607.207 250.312 607.025 250.59C606.944 250.715 605.324 253.371 609.217 256.708C609.471 256.926 609.501 257.308 609.283 257.562C609.163 257.701 608.993 257.773 608.823 257.773Z" fill="#060606"/>
<path d="M612.801 255.888C612.661 255.888 612.52 255.84 612.407 255.742C607.657 251.671 609.97 248.072 609.993 248.036C610.18 247.757 610.558 247.684 610.833 247.868C611.11 248.052 611.186 248.426 611.004 248.704C610.927 248.823 609.298 251.482 613.195 254.823C613.449 255.041 613.479 255.423 613.261 255.677C613.14 255.817 612.971 255.888 612.801 255.888Z" fill="#060606"/>
<path d="M618.246 272.225C618.107 272.225 617.966 272.177 617.852 272.079C613.103 268.007 615.415 264.408 615.439 264.372C615.626 264.093 616.002 264.019 616.279 264.204C616.556 264.388 616.631 264.762 616.449 265.04C616.376 265.155 614.74 267.815 618.64 271.16C618.895 271.378 618.924 271.76 618.707 272.014C618.586 272.153 618.416 272.225 618.246 272.225Z" fill="#060606"/>
<path d="M613.64 274.948C613.5 274.948 613.359 274.9 613.246 274.802C608.495 270.73 610.808 267.131 610.831 267.094C611.017 266.815 611.396 266.742 611.671 266.926C611.948 267.111 612.024 267.485 611.842 267.763C611.761 267.889 610.141 270.544 614.034 273.882C614.288 274.1 614.318 274.482 614.1 274.736C613.979 274.876 613.81 274.948 613.64 274.948Z" fill="#060606"/>
<path d="M627.253 286.257C627.113 286.257 626.972 286.209 626.859 286.111C622.108 282.039 624.422 278.44 624.445 278.404C624.632 278.125 625.01 278.052 625.285 278.236C625.562 278.42 625.638 278.794 625.456 279.072C625.381 279.189 623.746 281.848 627.647 285.192C627.901 285.409 627.931 285.792 627.713 286.045C627.592 286.185 627.423 286.257 627.253 286.257Z" fill="#060606"/>
<path d="M621.807 287.932C621.668 287.932 621.527 287.884 621.413 287.786C616.662 283.714 618.976 280.115 619 280.079C619.185 279.799 619.563 279.728 619.84 279.911C620.117 280.096 620.192 280.469 620.01 280.747C619.939 280.859 618.297 283.521 622.201 286.866C622.456 287.085 622.485 287.467 622.267 287.721C622.148 287.861 621.978 287.932 621.807 287.932Z" fill="#060606"/>
<path d="M634.376 135.528C634.076 135.528 633.816 135.304 633.776 134.998C630.816 111.617 611.82 98.6063 611.628 98.4773C611.351 98.2908 611.277 97.9143 611.464 97.6368C611.652 97.3583 612.029 97.2868 612.305 97.4718C612.5 97.6038 631.95 110.924 634.978 134.846C635.02 135.178 634.785 135.481 634.453 135.523C634.427 135.526 634.402 135.528 634.376 135.528Z" fill="#060606"/>
<path d="M634.984 152.488C634.964 152.488 634.942 152.487 634.922 152.485C634.59 152.452 634.346 152.155 634.38 151.822C634.674 148.881 634.082 141.406 634.076 141.331C634.049 140.997 634.297 140.705 634.631 140.678C634.959 140.656 635.257 140.9 635.283 141.234C635.308 141.545 635.89 148.894 635.585 151.942C635.554 152.255 635.29 152.488 634.984 152.488Z" fill="#060606"/>
<path d="M576.268 186.839C580.303 186.839 583.574 183.568 583.574 179.533C583.574 175.498 580.303 172.227 576.268 172.227C572.233 172.227 568.962 175.498 568.962 179.533C568.962 183.568 572.233 186.839 576.268 186.839Z" fill="#060606"/>
<path d="M552.025 136.362C552.025 136.362 562.32 138.355 563.316 137.691C564.313 137.027 563.98 123.079 574.939 122.083C585.898 121.086 591.876 131.049 582.909 138.687C573.943 146.325 569.626 145.993 567.965 154.959C566.483 162.964 568.629 168.243 569.626 168.907C570.622 169.571 580.252 169.571 580.585 168.243C580.917 166.914 578.26 156.288 582.245 153.631C586.23 150.975 598.827 144.958 599.846 131.714C601.174 114.445 582.245 105.147 569.294 109.132C556.342 113.117 550.365 133.373 552.025 136.362Z" fill="#060606"/>
<path d="M588.949 117.357C588.815 117.357 588.683 117.314 588.57 117.225C578.471 109.144 570.036 115.936 569.952 116.007C569.696 116.22 569.312 116.185 569.1 115.926C568.886 115.668 568.923 115.287 569.181 115.073C569.271 114.998 578.471 107.593 589.327 116.278C589.589 116.488 589.63 116.869 589.422 117.13C589.302 117.279 589.126 117.357 588.949 117.357Z" fill="#060606"/>
<path d="M595.915 127.957C595.58 127.957 595.309 127.686 595.309 127.351C595.309 123.994 591.572 119.93 591.534 119.889C591.306 119.644 591.32 119.26 591.566 119.033C591.809 118.807 592.193 118.819 592.422 119.065C592.59 119.245 596.521 123.523 596.521 127.351C596.52 127.686 596.249 127.957 595.915 127.957Z" fill="#060606"/>
<path d="M526.941 185.005C526.868 185.005 526.793 184.992 526.72 184.964C523.375 183.654 522.877 179.863 522.858 179.703C522.818 179.371 523.053 179.07 523.384 179.029C523.708 178.988 524.017 179.223 524.06 179.555C524.064 179.588 524.499 182.794 527.163 183.836C527.474 183.958 527.628 184.308 527.506 184.62C527.412 184.859 527.183 185.005 526.941 185.005Z" fill="#060606"/>
<path d="M527.85 176.829C527.776 176.829 527.702 176.816 527.629 176.788C524.283 175.478 523.785 171.687 523.766 171.527C523.726 171.195 523.961 170.894 524.293 170.853C524.615 170.81 524.926 171.047 524.968 171.379C524.973 171.412 525.407 174.617 528.071 175.659C528.382 175.781 528.536 176.132 528.414 176.444C528.321 176.682 528.091 176.829 527.85 176.829Z" fill="#060606"/>
<path d="M534.21 186.52C534.137 186.52 534.062 186.507 533.989 186.479C530.644 185.169 530.146 181.378 530.127 181.218C530.087 180.886 530.322 180.585 530.653 180.544C530.975 180.508 531.286 180.738 531.329 181.07C531.333 181.103 531.768 184.308 534.432 185.35C534.743 185.472 534.897 185.823 534.775 186.135C534.681 186.374 534.452 186.52 534.21 186.52Z" fill="#060606"/>
<path d="M534.954 193.68C534.892 193.68 534.83 193.671 534.767 193.651C531.349 192.543 530.627 188.788 530.598 188.629C530.539 188.3 530.755 187.986 531.084 187.925C531.415 187.862 531.727 188.083 531.789 188.41C531.796 188.442 532.419 191.616 535.14 192.498C535.458 192.601 535.632 192.943 535.529 193.261C535.447 193.518 535.209 193.68 534.954 193.68Z" fill="#060606"/>
<path d="M520.505 167.933C520.363 167.933 520.221 167.884 520.107 167.783C517.401 165.42 518.214 161.684 518.251 161.526C518.325 161.2 518.646 160.996 518.974 161.07C519.3 161.144 519.505 161.468 519.432 161.794C519.426 161.826 518.75 164.989 520.905 166.871C521.157 167.091 521.183 167.474 520.963 167.726C520.841 167.863 520.673 167.933 520.505 167.933Z" fill="#060606"/>
<path d="M514.746 164.038C514.578 164.038 514.41 163.968 514.29 163.831C511.922 161.129 513.224 157.534 513.281 157.382C513.398 157.07 513.745 156.91 514.06 157.027C514.372 157.143 514.533 157.491 514.417 157.805C514.407 157.835 513.317 160.882 515.202 163.033C515.422 163.285 515.397 163.667 515.145 163.888C515.03 163.988 514.888 164.038 514.746 164.038Z" fill="#060606"/>
<path d="M520.505 176.458C520.402 176.458 520.298 176.432 520.202 176.377C517.091 174.58 517.169 170.757 517.174 170.595C517.184 170.267 517.453 170.008 517.779 170.008C517.784 170.008 517.79 170.008 517.796 170.008C518.129 170.017 518.393 170.296 518.385 170.629C518.384 170.662 518.332 173.897 520.808 175.328C521.098 175.495 521.197 175.866 521.029 176.155C520.917 176.35 520.714 176.458 520.505 176.458Z" fill="#060606"/>
<path d="M573.728 281.578C573.402 281.578 573.134 281.321 573.122 280.994C573.11 280.659 573.373 280.379 573.707 280.367C574.506 280.339 575.291 280.264 576.04 280.144C576.363 280.091 576.68 280.315 576.733 280.645C576.786 280.976 576.562 281.286 576.231 281.34C575.434 281.468 574.598 281.549 573.749 281.578C573.742 281.578 573.735 281.578 573.728 281.578ZM571.309 281.533C571.295 281.533 571.28 281.533 571.266 281.532C570.472 281.477 569.644 281.383 568.808 281.251C568.477 281.199 568.251 280.889 568.303 280.559C568.355 280.227 568.667 280.007 568.995 280.054C569.798 280.18 570.591 280.271 571.349 280.323C571.684 280.347 571.934 280.636 571.912 280.97C571.889 281.289 571.623 281.533 571.309 281.533ZM578.491 280.796C578.233 280.796 577.994 280.63 577.912 280.371C577.813 280.052 577.99 279.712 578.31 279.612C579.059 279.377 579.783 279.085 580.459 278.743C580.756 278.591 581.122 278.711 581.273 279.01C581.423 279.309 581.304 279.673 581.006 279.824C580.27 280.196 579.484 280.514 578.672 280.768C578.611 280.787 578.551 280.796 578.491 280.796ZM566.525 280.79C566.477 280.79 566.429 280.784 566.379 280.772C565.545 280.566 564.742 280.303 563.993 279.987C563.684 279.858 563.539 279.503 563.669 279.194C563.798 278.887 564.155 278.741 564.462 278.871C565.154 279.161 565.897 279.405 566.67 279.597C566.994 279.677 567.193 280.005 567.113 280.33C567.045 280.605 566.797 280.79 566.525 280.79ZM562.088 278.906C561.975 278.906 561.86 278.875 561.758 278.808C561.048 278.346 560.381 277.817 559.776 277.234C559.534 277.002 559.527 276.618 559.759 276.378C559.993 276.136 560.377 276.131 560.616 276.361C561.166 276.891 561.773 277.373 562.419 277.793C562.699 277.975 562.778 278.35 562.596 278.631C562.48 278.809 562.286 278.906 562.088 278.906ZM582.787 278.616C582.603 278.616 582.421 278.532 582.302 278.373C582.102 278.105 582.157 277.726 582.425 277.525C583.042 277.065 583.62 276.546 584.145 275.982C584.375 275.739 584.757 275.724 585.002 275.952C585.247 276.18 585.26 276.563 585.033 276.808C584.458 277.425 583.825 277.993 583.149 278.497C583.04 278.577 582.914 278.616 582.787 278.616ZM558.62 275.568C558.43 275.568 558.244 275.48 558.125 275.313C557.649 274.64 557.22 273.907 556.852 273.133C556.709 272.83 556.838 272.469 557.14 272.326C557.439 272.183 557.803 272.31 557.948 272.613C558.285 273.324 558.676 273.996 559.114 274.611C559.307 274.885 559.243 275.262 558.97 275.456C558.863 275.532 558.742 275.568 558.62 275.568ZM586.075 275.088C585.962 275.088 585.849 275.057 585.747 274.992C585.466 274.811 585.384 274.436 585.565 274.155C586.306 273.004 586.594 272.14 586.597 272.131C586.701 271.813 587.043 271.639 587.361 271.744C587.678 271.848 587.852 272.188 587.749 272.506C587.736 272.547 587.415 273.518 586.585 274.81C586.469 274.99 586.274 275.088 586.075 275.088ZM556.541 271.217C556.28 271.217 556.038 271.046 555.96 270.783C555.726 269.994 555.545 269.17 555.421 268.336C555.371 268.006 555.599 267.697 555.931 267.648C556.253 267.606 556.571 267.827 556.618 268.158C556.734 268.936 556.905 269.703 557.122 270.439C557.217 270.76 557.035 271.097 556.713 271.192C556.656 271.209 556.598 271.217 556.541 271.217ZM555.812 266.439C555.485 266.439 555.215 266.177 555.207 265.848L555.202 265.399C555.202 264.713 555.237 264.023 555.306 263.351C555.341 263.018 555.641 262.782 555.97 262.81C556.251 262.839 556.468 263.055 556.507 263.323C556.998 263.077 557.479 262.809 557.943 262.52C558.225 262.346 558.601 262.43 558.777 262.715C558.953 262.999 558.865 263.372 558.582 263.549C557.892 263.978 557.167 264.367 556.426 264.703C556.418 264.935 556.413 265.168 556.413 265.399L556.418 265.818C556.426 266.152 556.161 266.43 555.827 266.439C555.822 266.439 555.817 266.439 555.812 266.439ZM549.078 266.296C549.073 266.296 549.068 266.296 549.065 266.296C548.212 266.277 547.366 266.183 546.552 266.016C546.225 265.949 546.014 265.628 546.08 265.301C546.148 264.972 546.473 264.763 546.796 264.829C547.539 264.981 548.311 265.068 549.091 265.085C549.426 265.092 549.691 265.369 549.683 265.704C549.676 266.034 549.407 266.296 549.078 266.296ZM551.491 266.149C551.195 266.149 550.936 265.931 550.892 265.629C550.845 265.298 551.076 264.991 551.407 264.943C552.162 264.836 552.927 264.667 553.683 264.442C554.006 264.346 554.342 264.529 554.436 264.85C554.531 265.17 554.349 265.507 554.028 265.603C553.216 265.845 552.391 266.026 551.577 266.143C551.549 266.147 551.519 266.149 551.491 266.149ZM544.357 265.324C544.28 265.324 544.202 265.31 544.128 265.279C543.356 264.963 542.602 264.569 541.886 264.108C541.604 263.927 541.523 263.553 541.704 263.271C541.885 262.99 542.259 262.908 542.541 263.09C543.195 263.51 543.884 263.87 544.587 264.159C544.897 264.285 545.045 264.639 544.918 264.949C544.821 265.183 544.595 265.324 544.357 265.324ZM540.296 262.73C540.151 262.73 540.005 262.678 539.889 262.573C539.288 262.028 538.706 261.419 538.159 260.761C537.946 260.504 537.98 260.122 538.238 259.908C538.494 259.696 538.876 259.73 539.091 259.986C539.601 260.6 540.144 261.169 540.704 261.675C540.951 261.9 540.97 262.282 540.745 262.53C540.625 262.663 540.461 262.73 540.296 262.73ZM560.223 262.22C560.051 262.22 559.88 262.147 559.76 262.005C559.544 261.749 559.577 261.367 559.832 261.151C560.464 260.619 561.009 260.068 561.452 259.515C561.661 259.253 562.046 259.212 562.304 259.421C562.565 259.63 562.607 260.011 562.398 260.272C561.905 260.887 561.305 261.494 560.613 262.078C560.5 262.174 560.361 262.22 560.223 262.22ZM556.314 261.631C556.268 261.631 556.22 261.626 556.172 261.614C555.847 261.536 555.647 261.209 555.725 260.884C555.932 260.024 556.196 259.217 556.508 258.486C556.64 258.179 556.999 258.035 557.303 258.167C557.611 258.298 557.754 258.654 557.623 258.962C557.336 259.631 557.095 260.373 556.903 261.167C556.836 261.445 556.589 261.631 556.314 261.631ZM537.192 259.03C536.995 259.03 536.801 258.933 536.685 258.755C536.229 258.056 535.806 257.34 535.424 256.625C535.266 256.33 535.378 255.963 535.673 255.806C535.965 255.648 536.335 255.758 536.493 256.055C536.858 256.739 537.265 257.425 537.7 258.094C537.882 258.374 537.803 258.749 537.523 258.932C537.42 258.998 537.306 259.03 537.192 259.03ZM563.095 258.395C563.041 258.395 562.986 258.388 562.932 258.373C562.609 258.282 562.422 257.948 562.512 257.626C562.569 257.422 562.598 257.228 562.598 257.05C562.598 256.639 562.449 256.337 562.127 256.1C561.859 255.9 561.802 255.521 562.002 255.253C562.202 254.982 562.58 254.927 562.849 255.126C563.477 255.592 563.809 256.257 563.809 257.05C563.809 257.339 563.765 257.642 563.678 257.953C563.604 258.221 563.36 258.395 563.095 258.395ZM558.275 257.239C558.143 257.239 558.009 257.196 557.898 257.107C557.636 256.898 557.593 256.518 557.802 256.256C558.47 255.417 559.213 254.869 560.009 254.628C560.326 254.53 560.667 254.712 560.764 255.032C560.861 255.352 560.68 255.69 560.36 255.787C559.812 255.953 559.255 256.376 558.749 257.011C558.629 257.161 558.453 257.239 558.275 257.239ZM534.934 254.752C534.695 254.752 534.468 254.609 534.372 254.373C534.055 253.589 533.787 252.793 533.577 252.009C533.489 251.686 533.681 251.354 534.004 251.267C534.333 251.181 534.659 251.371 534.745 251.694C534.944 252.432 535.196 253.18 535.495 253.919C535.621 254.229 535.47 254.582 535.16 254.707C535.086 254.737 535.009 254.752 534.934 254.752ZM533.689 250.083C533.389 250.083 533.129 249.859 533.089 249.553C533.001 248.85 532.957 248.149 532.958 247.467L532.964 247.044C532.972 246.711 533.27 246.448 533.585 246.455C533.92 246.464 534.183 246.742 534.175 247.076L534.169 247.468C534.168 248.099 534.209 248.749 534.291 249.401C534.333 249.733 534.097 250.036 533.766 250.078C533.74 250.081 533.715 250.083 533.689 250.083ZM533.825 245.26C533.787 245.26 533.75 245.257 533.712 245.25C533.383 245.188 533.166 244.871 533.229 244.542C533.384 243.722 533.608 242.905 533.895 242.114C534.009 241.8 534.357 241.64 534.671 241.752C534.986 241.866 535.148 242.214 535.033 242.528C534.907 242.876 534.794 243.23 534.695 243.586C535.277 243.693 535.852 243.756 536.409 243.776C536.742 243.787 537.004 244.067 536.993 244.402C536.981 244.736 536.709 245.039 536.366 244.986C535.732 244.965 535.079 244.891 534.419 244.767C534.365 245.058 534.11 245.26 533.825 245.26ZM538.795 244.799C538.513 244.799 538.261 244.6 538.203 244.312C538.136 243.983 538.349 243.665 538.678 243.599C539.429 243.449 540.15 243.207 540.821 242.879C541.118 242.734 541.484 242.857 541.63 243.158C541.776 243.459 541.651 243.822 541.351 243.969C540.588 244.34 539.768 244.616 538.915 244.786C538.875 244.795 538.835 244.799 538.795 244.799ZM531.679 243.945C531.606 243.945 531.53 243.931 531.458 243.903C530.717 243.612 529.956 243.259 529.198 242.853C528.902 242.696 528.791 242.329 528.948 242.034C529.107 241.739 529.475 241.628 529.768 241.785C530.486 242.168 531.203 242.501 531.901 242.775C532.212 242.898 532.366 243.249 532.244 243.561C532.149 243.799 531.921 243.945 531.679 243.945ZM543.099 242.698C542.93 242.698 542.76 242.627 542.641 242.489C542.422 242.236 542.449 241.853 542.702 241.634C543.274 241.138 543.78 240.57 544.206 239.947C544.395 239.671 544.771 239.601 545.048 239.789C545.324 239.977 545.395 240.354 545.207 240.63C544.722 241.339 544.146 241.985 543.495 242.55C543.382 242.649 543.24 242.698 543.099 242.698ZM527.404 241.684C527.289 241.684 527.174 241.652 527.071 241.585C526.361 241.12 525.685 240.634 525.061 240.143C524.799 239.936 524.754 239.555 524.961 239.292C525.168 239.03 525.55 238.986 525.811 239.192C526.407 239.661 527.055 240.126 527.736 240.572C528.015 240.756 528.093 241.131 527.91 241.41C527.794 241.588 527.6 241.684 527.404 241.684ZM535.471 240.726C535.37 240.726 535.27 240.701 535.176 240.649C534.884 240.487 534.779 240.117 534.942 239.825C535.347 239.099 535.815 238.394 536.335 237.732C536.541 237.467 536.92 237.421 537.185 237.628C537.448 237.834 537.494 238.215 537.288 238.478C536.808 239.092 536.375 239.743 536 240.415C535.89 240.615 535.683 240.726 535.471 240.726ZM545.792 238.735C545.728 238.735 545.664 238.725 545.601 238.704C545.284 238.598 545.112 238.255 545.217 237.938C545.423 237.321 545.532 236.709 545.532 236.167C545.532 236.043 545.526 235.921 545.514 235.803C545.482 235.47 545.727 235.174 546.06 235.143C546.39 235.106 546.688 235.355 546.721 235.688C546.735 235.843 546.744 236.004 546.744 236.167C546.744 236.847 546.617 237.572 546.368 238.321C546.282 238.575 546.046 238.735 545.792 238.735ZM523.614 238.679C523.461 238.679 523.309 238.622 523.19 238.507C522.58 237.91 522.017 237.285 521.517 236.651C521.31 236.388 521.355 236.007 521.618 235.8C521.879 235.594 522.26 235.638 522.468 235.902C522.936 236.495 523.463 237.08 524.037 237.64C524.276 237.874 524.28 238.258 524.046 238.497C523.928 238.618 523.771 238.679 523.614 238.679ZM538.453 236.931C538.29 236.931 538.128 236.866 538.008 236.736C537.781 236.491 537.796 236.107 538.043 235.881C538.682 235.29 539.356 234.77 540.047 234.334C540.324 234.156 540.703 234.238 540.882 234.522C541.06 234.805 540.975 235.179 540.692 235.358C540.065 235.755 539.449 236.23 538.863 236.77C538.748 236.878 538.6 236.931 538.453 236.931ZM520.65 234.87C520.438 234.87 520.231 234.758 520.121 234.559C519.705 233.811 519.359 233.033 519.094 232.248C518.987 231.931 519.157 231.588 519.474 231.481C519.798 231.372 520.135 231.544 520.242 231.861C520.483 232.577 520.799 233.287 521.179 233.971C521.342 234.264 521.237 234.632 520.945 234.795C520.851 234.846 520.751 234.87 520.65 234.87ZM542.552 234.416C542.293 234.416 542.053 234.248 541.973 233.987C541.876 233.668 542.056 233.329 542.375 233.231C543.478 232.894 544.454 232.891 545.175 233.215C545.479 233.352 545.615 233.711 545.478 234.016C545.339 234.321 544.981 234.456 544.676 234.319C544.236 234.121 543.535 234.144 542.73 234.39C542.671 234.408 542.61 234.416 542.552 234.416ZM519.124 230.304C518.825 230.304 518.564 230.081 518.524 229.776C518.454 229.235 518.419 228.679 518.418 228.123C518.418 227.821 518.427 227.526 518.447 227.239C518.471 226.905 518.763 226.664 519.093 226.676C519.427 226.699 519.679 226.989 519.656 227.323C519.639 227.583 519.629 227.849 519.629 228.122C519.63 228.626 519.664 229.13 519.726 229.621C519.769 229.953 519.535 230.257 519.202 230.299C519.176 230.302 519.15 230.304 519.124 230.304ZM519.436 225.498C519.387 225.498 519.337 225.492 519.286 225.479C518.962 225.395 518.767 225.066 518.85 224.742C519.117 223.7 519.459 222.868 519.699 222.354C519.841 222.05 520.203 221.922 520.505 222.061C520.808 222.203 520.939 222.563 520.797 222.866C520.578 223.334 520.267 224.091 520.023 225.042C519.953 225.316 519.707 225.498 519.436 225.498Z" fill="#060606"/>
<path d="M658.12 199.989C657.798 199.989 657.531 199.736 657.516 199.412C657.499 199.078 657.757 198.794 658.092 198.778C658.852 198.742 659.627 198.642 660.396 198.482C660.726 198.414 661.046 198.623 661.113 198.951C661.182 199.278 660.972 199.599 660.645 199.667C659.813 199.841 658.973 199.949 658.149 199.988C658.139 199.989 658.13 199.989 658.12 199.989ZM655.703 199.903C655.678 199.903 655.654 199.902 655.63 199.899C654.793 199.798 653.962 199.624 653.158 199.381C652.839 199.285 652.657 198.947 652.754 198.627C652.851 198.307 653.184 198.127 653.508 198.222C654.244 198.444 655.007 198.604 655.774 198.696C656.106 198.736 656.343 199.038 656.303 199.371C656.266 199.678 656.005 199.903 655.703 199.903ZM662.846 199.012C662.599 199.012 662.367 198.859 662.277 198.614C662.163 198.299 662.325 197.951 662.639 197.837C663.027 197.696 663.416 197.537 663.809 197.362C664.139 197.214 664.462 197.057 664.777 196.89C665.07 196.734 665.439 196.846 665.595 197.142C665.751 197.438 665.638 197.805 665.342 197.961C665.006 198.139 664.66 198.308 664.304 198.467C663.885 198.655 663.467 198.825 663.053 198.975C662.985 199 662.915 199.012 662.846 199.012ZM651.088 198.512C650.996 198.512 650.904 198.491 650.816 198.447C650.07 198.072 649.346 197.627 648.668 197.126C648.398 196.928 648.341 196.548 648.54 196.279C648.74 196.011 649.121 195.954 649.387 196.151C650.01 196.612 650.674 197.02 651.36 197.364C651.659 197.514 651.779 197.878 651.629 198.178C651.524 198.39 651.31 198.512 651.088 198.512ZM667.113 196.751C666.926 196.751 666.742 196.664 666.623 196.502C666.427 196.231 666.486 195.852 666.757 195.655C667.38 195.201 667.979 194.694 668.536 194.149C668.777 193.915 669.16 193.92 669.392 194.159C669.626 194.398 669.622 194.782 669.383 195.015C668.784 195.601 668.141 196.146 667.469 196.635C667.362 196.713 667.237 196.751 667.113 196.751ZM647.212 195.644C647.052 195.644 646.892 195.582 646.774 195.457C646.187 194.842 645.656 194.178 645.196 193.483C645.012 193.204 645.087 192.828 645.367 192.643C645.642 192.46 646.02 192.533 646.207 192.814C646.628 193.45 647.113 194.057 647.65 194.62C647.882 194.862 647.873 195.246 647.63 195.477C647.512 195.589 647.362 195.644 647.212 195.644ZM670.564 193.38C670.434 193.38 670.304 193.338 670.194 193.253C669.929 193.049 669.88 192.668 670.085 192.403C670.551 191.801 670.991 191.147 671.393 190.461C671.562 190.17 671.932 190.075 672.223 190.244C672.511 190.413 672.608 190.784 672.439 191.072C672.011 191.804 671.541 192.501 671.043 193.145C670.924 193.299 670.745 193.38 670.564 193.38ZM644.555 191.623C644.318 191.623 644.093 191.484 643.996 191.252C643.661 190.455 643.411 189.637 643.252 188.821C643.188 188.492 643.404 188.175 643.731 188.111C644.055 188.046 644.377 188.26 644.442 188.59C644.584 189.324 644.81 190.062 645.113 190.782C645.243 191.091 645.098 191.446 644.789 191.575C644.713 191.608 644.633 191.623 644.555 191.623ZM673.015 189.214C672.934 189.214 672.851 189.198 672.772 189.163C672.467 189.028 672.327 188.671 672.461 188.365C672.768 187.662 673.049 186.919 673.292 186.156C673.394 185.837 673.735 185.664 674.054 185.764C674.372 185.866 674.549 186.207 674.447 186.526C674.189 187.328 673.895 188.111 673.571 188.852C673.471 189.079 673.248 189.214 673.015 189.214ZM643.652 186.902C643.645 186.902 643.639 186.902 643.632 186.902C643.297 186.891 643.036 186.61 643.046 186.276C643.076 185.412 643.21 184.559 643.445 183.742C643.537 183.42 643.875 183.235 644.194 183.327C644.516 183.42 644.701 183.755 644.609 184.077C644.402 184.798 644.283 185.553 644.257 186.317C644.246 186.645 643.977 186.902 643.652 186.902ZM674.496 184.606C674.454 184.606 674.41 184.602 674.366 184.592C674.04 184.521 673.833 184.198 673.905 183.871C674.072 183.111 674.209 182.325 674.312 181.535C674.356 181.202 674.667 180.967 674.992 181.014C675.323 181.057 675.556 181.362 675.513 181.693C675.404 182.517 675.261 183.337 675.087 184.13C675.026 184.413 674.776 184.606 674.496 184.606ZM644.972 182.291C644.869 182.291 644.765 182.265 644.669 182.21C644.379 182.043 644.28 181.673 644.447 181.383C644.727 180.897 645.052 180.421 645.412 179.971C645.622 179.71 646.001 179.668 646.264 179.876C646.525 180.085 646.567 180.467 646.358 180.727C646.036 181.131 645.747 181.554 645.497 181.988C645.385 182.182 645.182 182.291 644.972 182.291ZM675.132 179.807C675.122 179.807 675.112 179.807 675.102 179.806C674.767 179.79 674.511 179.505 674.527 179.171C674.553 178.635 674.567 178.1 674.567 177.566C674.566 177.31 674.563 177.051 674.557 176.793C674.55 176.459 674.815 176.181 675.148 176.173C675.456 176.178 675.761 176.431 675.768 176.765C675.774 177.031 675.778 177.297 675.779 177.563C675.779 178.12 675.765 178.675 675.736 179.231C675.721 179.555 675.452 179.807 675.132 179.807ZM675.013 174.968C674.706 174.968 674.443 174.734 674.411 174.422C674.334 173.636 674.226 172.844 674.088 172.067C674.03 171.737 674.249 171.423 674.579 171.365C674.902 171.307 675.223 171.526 675.281 171.856C675.424 172.664 675.536 173.486 675.618 174.302C675.65 174.635 675.407 174.932 675.074 174.965C675.054 174.967 675.033 174.968 675.013 174.968ZM674.164 170.201C673.895 170.201 673.65 170.022 673.578 169.749C673.372 168.967 673.133 168.208 672.871 167.493C672.755 167.179 672.916 166.83 673.229 166.715C673.261 166.703 673.294 166.694 673.327 166.688C673.257 166.608 673.209 166.509 673.19 166.397C673.132 166.067 673.354 165.753 673.684 165.696C674.462 165.561 675.213 165.363 675.917 165.105C676.228 164.989 676.58 165.15 676.694 165.465C676.809 165.779 676.648 166.127 676.333 166.241C675.564 166.523 674.744 166.741 673.897 166.888C673.943 166.941 673.981 167.004 674.006 167.073C674.283 167.824 674.533 168.621 674.749 169.44C674.834 169.763 674.642 170.095 674.319 170.18C674.267 170.194 674.215 170.201 674.164 170.201ZM671.075 167.127C670.352 167.127 669.617 167.082 668.886 166.994C668.555 166.954 668.318 166.651 668.358 166.319C668.398 165.987 668.711 165.759 669.033 165.79C669.714 165.873 670.401 165.915 671.076 165.915L671.367 165.913C671.647 165.919 671.977 166.174 671.983 166.508C671.989 166.842 671.723 167.118 671.388 167.124L671.075 167.127ZM666.579 166.546C666.528 166.546 666.477 166.539 666.425 166.526C665.58 166.305 664.779 166.028 664.046 165.704C663.739 165.569 663.6 165.212 663.735 164.906C663.871 164.599 664.23 164.461 664.533 164.596C665.21 164.894 665.949 165.149 666.732 165.355C667.055 165.439 667.249 165.771 667.164 166.094C667.093 166.366 666.847 166.546 666.579 166.546ZM672.478 165.665C672.257 165.665 672.044 165.543 671.938 165.332C671.569 164.602 671.166 163.931 670.739 163.339C670.544 163.067 670.606 162.689 670.878 162.493C671.146 162.297 671.525 162.358 671.724 162.631C672.186 163.274 672.623 163.999 673.019 164.787C673.17 165.085 673.05 165.45 672.752 165.6C672.664 165.644 672.57 165.665 672.478 165.665ZM678.301 165.223C678.098 165.223 677.901 165.122 677.786 164.937C677.61 164.653 677.698 164.28 677.981 164.103C678.271 163.922 678.554 163.727 678.829 163.515C679.182 163.244 679.52 162.972 679.848 162.699C680.103 162.485 680.485 162.518 680.701 162.776C680.915 163.032 680.881 163.414 680.624 163.629C680.284 163.913 679.932 164.195 679.567 164.475C679.261 164.711 678.945 164.93 678.62 165.132C678.521 165.194 678.411 165.223 678.301 165.223ZM662.206 164.53C662.071 164.53 661.937 164.485 661.824 164.394C660.932 163.667 660.46 162.881 660.46 162.119C660.46 162.011 660.47 161.903 660.489 161.796C660.549 161.465 660.866 161.244 661.194 161.308C661.523 161.368 661.74 161.683 661.681 162.012C661.672 162.493 662.007 162.98 662.589 163.454C662.849 163.665 662.888 164.047 662.676 164.307C662.556 164.453 662.381 164.53 662.206 164.53ZM682.032 162.145C681.876 162.145 681.72 162.084 681.602 161.964C681.366 161.726 681.369 161.343 681.606 161.108C682.182 160.539 682.723 159.956 683.213 159.372C683.428 159.115 683.81 159.084 684.066 159.298C684.322 159.514 684.356 159.896 684.14 160.152C683.627 160.763 683.06 161.375 682.458 161.97C682.34 162.087 682.186 162.145 682.032 162.145ZM669.615 161.795C669.474 161.795 669.335 161.747 669.22 161.648C668.618 161.129 667.989 160.756 667.35 160.538C667.033 160.43 666.864 160.086 666.971 159.769C667.08 159.452 667.429 159.283 667.74 159.391C668.527 159.659 669.29 160.11 670.01 160.73C670.263 160.948 670.293 161.33 670.074 161.584C669.955 161.723 669.786 161.795 669.615 161.795ZM662.813 160.963C662.571 160.963 662.342 160.816 662.249 160.577C662.127 160.265 662.282 159.914 662.594 159.793C663.259 159.534 664.091 159.326 665.066 159.173C665.397 159.129 665.706 159.348 665.758 159.678C665.81 160.009 665.583 160.318 665.253 160.37C664.364 160.509 663.618 160.694 663.032 160.922C662.961 160.95 662.886 160.963 662.813 160.963ZM685.13 158.432C685.014 158.432 684.897 158.399 684.793 158.33C684.515 158.144 684.441 157.768 684.626 157.49C685.069 156.827 685.467 156.146 685.81 155.464C685.958 155.164 686.324 155.045 686.623 155.195C686.922 155.345 687.042 155.709 686.891 156.009C686.527 156.735 686.103 157.46 685.634 158.163C685.517 158.338 685.326 158.432 685.13 158.432ZM687.292 154.113C687.227 154.113 687.16 154.102 687.095 154.08C686.779 153.972 686.61 153.628 686.718 153.311C686.972 152.567 687.173 151.808 687.315 151.055C687.377 150.726 687.701 150.509 688.023 150.572C688.352 150.633 688.567 150.95 688.505 151.279C688.353 152.089 688.137 152.904 687.865 153.703C687.779 153.955 687.544 154.113 687.292 154.113ZM688.182 149.368C688.175 149.368 688.167 149.368 688.159 149.368C687.825 149.355 687.565 149.074 687.577 148.74C687.585 148.53 687.59 148.323 687.59 148.116C687.591 147.557 687.56 146.982 687.5 146.407C687.464 146.074 687.706 145.776 688.038 145.741C688.359 145.699 688.669 145.947 688.704 146.28C688.769 146.898 688.802 147.516 688.801 148.118C688.801 148.338 688.797 148.561 688.788 148.786C688.775 149.112 688.507 149.368 688.182 149.368ZM687.677 144.566C687.405 144.566 687.158 144.382 687.089 144.107C686.904 143.36 686.661 142.611 686.37 141.88C686.247 141.57 686.398 141.217 686.709 141.094C687.018 140.969 687.372 141.122 687.496 141.432C687.807 142.213 688.065 143.015 688.265 143.814C688.345 144.138 688.148 144.467 687.823 144.548C687.774 144.56 687.726 144.566 687.677 144.566ZM679.431 140.662C679.414 140.662 679.399 140.662 679.383 140.66C678.411 140.586 677.554 140.386 676.837 140.068C676.531 139.933 676.392 139.575 676.528 139.269C676.664 138.962 677.026 138.827 677.327 138.961C677.918 139.223 678.641 139.388 679.475 139.453C679.809 139.478 680.058 139.77 680.032 140.103C680.009 140.421 679.743 140.662 679.431 140.662ZM681.845 140.609C681.54 140.609 681.276 140.377 681.244 140.066C681.209 139.734 681.45 139.436 681.783 139.401C682.269 139.349 682.782 139.274 683.328 139.172C683.59 139.121 683.852 139.069 684.107 139.013C684.438 138.939 684.757 139.149 684.828 139.476C684.9 139.802 684.692 140.125 684.365 140.196C684.1 140.254 683.829 140.309 683.554 140.362C682.972 140.471 682.425 140.551 681.911 140.605C681.888 140.607 681.866 140.609 681.845 140.609ZM685.892 140.076C685.681 140.076 685.475 139.964 685.363 139.765C684.979 139.077 684.551 138.416 684.089 137.801C683.889 137.534 683.944 137.154 684.211 136.954C684.477 136.754 684.857 136.805 685.059 137.075C685.421 137.559 685.766 138.069 686.085 138.598C686.156 138.504 686.254 138.43 686.375 138.39C687.145 138.13 687.87 137.83 688.529 137.496C688.826 137.344 689.192 137.463 689.343 137.763C689.495 138.061 689.375 138.426 689.076 138.577C688.366 138.936 687.588 139.26 686.761 139.538C686.671 139.569 686.579 139.577 686.491 139.565C686.463 139.742 686.356 139.905 686.188 139.999C686.094 140.051 685.993 140.076 685.892 140.076ZM675.288 138.561C675.072 138.561 674.863 138.445 674.754 138.241C674.476 137.723 674.335 137.159 674.335 136.564C674.335 136.185 674.394 135.801 674.512 135.426C674.612 135.108 674.953 134.929 675.27 135.028C675.59 135.128 675.768 135.467 675.669 135.787C675.588 136.045 675.547 136.307 675.547 136.565C675.547 136.958 675.639 137.33 675.821 137.67C675.98 137.965 675.869 138.332 675.574 138.49C675.483 138.538 675.385 138.561 675.288 138.561ZM690.854 137.362C690.673 137.362 690.493 137.281 690.373 137.125C690.17 136.86 690.219 136.48 690.484 136.276C691.103 135.802 691.655 135.271 692.127 134.698C692.34 134.438 692.722 134.403 692.979 134.616C693.238 134.828 693.275 135.21 693.062 135.468C692.532 136.112 691.914 136.707 691.223 137.237C691.113 137.322 690.983 137.362 690.854 137.362ZM682.984 136.219C682.832 136.219 682.679 136.162 682.561 136.047C681.969 135.469 681.368 134.987 680.774 134.612C680.492 134.433 680.406 134.059 680.585 133.777C680.765 133.493 681.138 133.411 681.42 133.587C682.086 134.007 682.754 134.544 683.407 135.18C683.646 135.414 683.651 135.798 683.417 136.037C683.299 136.158 683.142 136.219 682.984 136.219ZM676.538 134.332C676.338 134.332 676.142 134.232 676.026 134.05C675.847 133.768 675.931 133.393 676.214 133.215C677.003 132.716 677.934 132.506 678.93 132.624C679.262 132.663 679.5 132.964 679.46 133.297C679.422 133.629 679.11 133.866 678.788 133.827C678.065 133.743 677.423 133.884 676.862 134.238C676.762 134.301 676.649 134.332 676.538 134.332ZM693.889 133.65C693.802 133.65 693.713 133.631 693.629 133.592C693.327 133.448 693.198 133.087 693.342 132.784C693.659 132.115 693.907 131.389 694.077 130.625C694.149 130.3 694.472 130.092 694.8 130.166C695.126 130.238 695.332 130.563 695.26 130.889C695.069 131.741 694.792 132.554 694.435 133.305C694.333 133.522 694.115 133.65 693.889 133.65ZM694.966 128.963C694.959 128.963 694.953 128.963 694.946 128.962C694.611 128.951 694.35 128.671 694.36 128.336C694.366 128.169 694.369 128.002 694.369 127.835C694.369 127.248 694.333 126.632 694.265 126.004C694.228 125.671 694.468 125.372 694.801 125.335C695.127 125.296 695.432 125.538 695.469 125.871C695.543 126.544 695.58 127.204 695.58 127.835C695.58 128.016 695.578 128.197 695.572 128.378C695.56 128.705 695.291 128.963 694.966 128.963ZM694.459 124.155C694.182 124.155 693.933 123.964 693.869 123.684C693.698 122.94 693.485 122.172 693.233 121.402C693.129 121.085 693.303 120.742 693.621 120.639C693.939 120.534 694.28 120.708 694.385 121.026C694.648 121.831 694.871 122.635 695.049 123.414C695.123 123.741 694.919 124.065 694.593 124.139C694.549 124.15 694.503 124.155 694.459 124.155ZM692.959 119.549C692.723 119.549 692.499 119.41 692.401 119.178C691.852 117.875 691.394 117.055 691.39 117.047C691.226 116.756 691.33 116.387 691.621 116.223C691.915 116.06 692.281 116.163 692.445 116.454C692.465 116.49 692.939 117.336 693.517 118.708C693.647 119.017 693.502 119.371 693.194 119.502C693.118 119.533 693.037 119.549 692.959 119.549Z" fill="#060606"/>
<path d="M515.888 327.297V344.752H513.843L504.331 331.047H504.161V344.752H502.047V327.297H504.093L513.638 341.036H513.809V327.297H515.888ZM525.163 345.024C523.981 345.024 522.944 344.743 522.052 344.181C521.166 343.618 520.473 342.831 519.973 341.82C519.478 340.808 519.231 339.627 519.231 338.274C519.231 336.911 519.478 335.72 519.973 334.703C520.473 333.686 521.166 332.896 522.052 332.334C522.944 331.771 523.981 331.49 525.163 331.49C526.345 331.49 527.379 331.771 528.265 332.334C529.157 332.896 529.85 333.686 530.345 334.703C530.845 335.72 531.095 336.911 531.095 338.274C531.095 339.627 530.845 340.808 530.345 341.82C529.85 342.831 529.157 343.618 528.265 344.181C527.379 344.743 526.345 345.024 525.163 345.024ZM525.163 343.217C526.061 343.217 526.799 342.987 527.379 342.527C527.958 342.067 528.387 341.462 528.666 340.712C528.944 339.962 529.083 339.149 529.083 338.274C529.083 337.399 528.944 336.584 528.666 335.828C528.387 335.073 527.958 334.462 527.379 333.996C526.799 333.53 526.061 333.297 525.163 333.297C524.265 333.297 523.527 333.53 522.947 333.996C522.368 334.462 521.939 335.073 521.66 335.828C521.382 336.584 521.243 337.399 521.243 338.274C521.243 339.149 521.382 339.962 521.66 340.712C521.939 341.462 522.368 342.067 522.947 342.527C523.527 342.987 524.265 343.217 525.163 343.217ZM546.404 345.024C545.142 345.024 544.054 344.746 543.14 344.189C542.23 343.627 541.529 342.842 541.034 341.837C540.546 340.825 540.301 339.649 540.301 338.308C540.301 336.967 540.546 335.786 541.034 334.763C541.529 333.735 542.216 332.933 543.097 332.36C543.983 331.78 545.017 331.49 546.199 331.49C546.881 331.49 547.554 331.604 548.219 331.831C548.884 332.058 549.489 332.428 550.034 332.939C550.58 333.445 551.015 334.115 551.338 334.95C551.662 335.786 551.824 336.814 551.824 338.036V338.888H541.733V337.149H549.779C549.779 336.411 549.631 335.752 549.336 335.172C549.046 334.592 548.631 334.135 548.091 333.8C547.557 333.465 546.926 333.297 546.199 333.297C545.398 333.297 544.705 333.496 544.12 333.894C543.54 334.286 543.094 334.797 542.782 335.428C542.469 336.058 542.313 336.735 542.313 337.456V338.615C542.313 339.604 542.483 340.442 542.824 341.129C543.171 341.811 543.651 342.331 544.265 342.689C544.878 343.041 545.591 343.217 546.404 343.217C546.932 343.217 547.409 343.144 547.836 342.996C548.267 342.842 548.64 342.615 548.952 342.314C549.265 342.007 549.506 341.627 549.676 341.172L551.62 341.717C551.415 342.377 551.071 342.956 550.588 343.456C550.105 343.95 549.509 344.337 548.799 344.615C548.088 344.888 547.29 345.024 546.404 345.024ZM565.19 331.661L560.349 344.752H558.304L553.463 331.661H555.645L559.258 342.092H559.395L563.008 331.661H565.19ZM572.865 345.024C571.603 345.024 570.515 344.746 569.6 344.189C568.691 343.627 567.99 342.842 567.495 341.837C567.007 340.825 566.762 339.649 566.762 338.308C566.762 336.967 567.007 335.786 567.495 334.763C567.99 333.735 568.677 332.933 569.558 332.36C570.444 331.78 571.478 331.49 572.66 331.49C573.342 331.49 574.015 331.604 574.68 331.831C575.345 332.058 575.95 332.428 576.495 332.939C577.041 333.445 577.475 334.115 577.799 334.95C578.123 335.786 578.285 336.814 578.285 338.036V338.888H568.194V337.149H576.24C576.24 336.411 576.092 335.752 575.797 335.172C575.507 334.592 575.092 334.135 574.552 333.8C574.018 333.465 573.387 333.297 572.66 333.297C571.859 333.297 571.166 333.496 570.581 333.894C570.001 334.286 569.555 334.797 569.243 335.428C568.93 336.058 568.774 336.735 568.774 337.456V338.615C568.774 339.604 568.944 340.442 569.285 341.129C569.632 341.811 570.112 342.331 570.725 342.689C571.339 343.041 572.052 343.217 572.865 343.217C573.393 343.217 573.87 343.144 574.297 342.996C574.728 342.842 575.1 342.615 575.413 342.314C575.725 342.007 575.967 341.627 576.137 341.172L578.081 341.717C577.876 342.377 577.532 342.956 577.049 343.456C576.566 343.95 575.97 344.337 575.26 344.615C574.549 344.888 573.751 345.024 572.865 345.024ZM583.356 336.877V344.752H581.345V331.661H583.288V333.706H583.458C583.765 333.041 584.231 332.507 584.856 332.104C585.481 331.695 586.288 331.49 587.277 331.49C588.163 331.49 588.939 331.672 589.603 332.036C590.268 332.394 590.785 332.939 591.154 333.672C591.524 334.399 591.708 335.32 591.708 336.433V344.752H589.697V336.57C589.697 335.541 589.43 334.74 588.896 334.166C588.362 333.587 587.629 333.297 586.697 333.297C586.055 333.297 585.481 333.436 584.975 333.715C584.475 333.993 584.081 334.399 583.791 334.933C583.501 335.467 583.356 336.115 583.356 336.877ZM601.077 331.661V333.365H594.293V331.661H601.077ZM596.27 328.524H598.282V341.002C598.282 341.57 598.364 341.996 598.529 342.28C598.699 342.558 598.915 342.746 599.176 342.842C599.444 342.933 599.725 342.979 600.02 342.979C600.242 342.979 600.424 342.967 600.566 342.945C600.708 342.916 600.821 342.894 600.907 342.877L601.316 344.683C601.179 344.735 600.989 344.786 600.745 344.837C600.5 344.894 600.191 344.922 599.816 344.922C599.248 344.922 598.691 344.8 598.145 344.556C597.605 344.311 597.157 343.939 596.799 343.439C596.446 342.939 596.27 342.308 596.27 341.547V328.524ZM613.141 334.592L611.334 335.104C611.221 334.803 611.053 334.51 610.831 334.226C610.615 333.936 610.32 333.698 609.945 333.51C609.57 333.323 609.09 333.229 608.505 333.229C607.703 333.229 607.036 333.414 606.502 333.783C605.973 334.146 605.709 334.61 605.709 335.172C605.709 335.672 605.891 336.067 606.255 336.357C606.618 336.646 607.186 336.888 607.959 337.081L609.902 337.558C611.073 337.842 611.945 338.277 612.519 338.862C613.093 339.442 613.38 340.189 613.38 341.104C613.38 341.854 613.164 342.524 612.732 343.115C612.306 343.706 611.709 344.172 610.942 344.513C610.175 344.854 609.283 345.024 608.266 345.024C606.931 345.024 605.826 344.735 604.951 344.155C604.076 343.575 603.522 342.729 603.289 341.615L605.198 341.138C605.38 341.842 605.723 342.371 606.229 342.723C606.74 343.075 607.408 343.252 608.232 343.252C609.169 343.252 609.914 343.053 610.465 342.655C611.022 342.252 611.3 341.769 611.3 341.206C611.3 340.752 611.141 340.371 610.823 340.064C610.505 339.752 610.016 339.519 609.357 339.365L607.175 338.854C605.976 338.57 605.096 338.129 604.533 337.533C603.976 336.931 603.698 336.178 603.698 335.274C603.698 334.536 603.905 333.882 604.32 333.314C604.74 332.746 605.311 332.3 606.033 331.976C606.76 331.652 607.584 331.49 608.505 331.49C609.8 331.49 610.817 331.774 611.556 332.342C612.3 332.911 612.828 333.661 613.141 334.592ZM628.987 331.661V333.365H621.93V331.661H628.987ZM624.044 344.752V329.854C624.044 329.104 624.22 328.479 624.572 327.979C624.924 327.479 625.382 327.104 625.944 326.854C626.507 326.604 627.1 326.479 627.725 326.479C628.22 326.479 628.623 326.519 628.936 326.598C629.248 326.678 629.481 326.752 629.635 326.82L629.055 328.558C628.953 328.524 628.811 328.482 628.629 328.431C628.453 328.379 628.22 328.354 627.93 328.354C627.265 328.354 626.785 328.521 626.49 328.857C626.2 329.192 626.055 329.683 626.055 330.331V344.752H624.044ZM636.585 345.024C635.403 345.024 634.366 344.743 633.474 344.181C632.588 343.618 631.895 342.831 631.395 341.82C630.9 340.808 630.653 339.627 630.653 338.274C630.653 336.911 630.9 335.72 631.395 334.703C631.895 333.686 632.588 332.896 633.474 332.334C634.366 331.771 635.403 331.49 636.585 331.49C637.767 331.49 638.801 331.771 639.687 332.334C640.579 332.896 641.272 333.686 641.767 334.703C642.267 335.72 642.517 336.911 642.517 338.274C642.517 339.627 642.267 340.808 641.767 341.82C641.272 342.831 640.579 343.618 639.687 344.181C638.801 344.743 637.767 345.024 636.585 345.024ZM636.585 343.217C637.483 343.217 638.221 342.987 638.801 342.527C639.38 342.067 639.809 341.462 640.088 340.712C640.366 339.962 640.505 339.149 640.505 338.274C640.505 337.399 640.366 336.584 640.088 335.828C639.809 335.073 639.38 334.462 638.801 333.996C638.221 333.53 637.483 333.297 636.585 333.297C635.687 333.297 634.949 333.53 634.369 333.996C633.789 334.462 633.36 335.073 633.082 335.828C632.804 336.584 632.664 337.399 632.664 338.274C632.664 339.149 632.804 339.962 633.082 340.712C633.36 341.462 633.789 342.067 634.369 342.527C634.949 342.987 635.687 343.217 636.585 343.217ZM653.837 339.399V331.661H655.848V344.752H653.837V342.536H653.701C653.394 343.2 652.917 343.766 652.269 344.232C651.621 344.692 650.803 344.922 649.814 344.922C648.996 344.922 648.269 344.743 647.632 344.385C646.996 344.021 646.496 343.476 646.132 342.749C645.769 342.016 645.587 341.092 645.587 339.979V331.661H647.598V339.842C647.598 340.797 647.865 341.558 648.4 342.127C648.939 342.695 649.627 342.979 650.462 342.979C650.962 342.979 651.471 342.851 651.988 342.595C652.51 342.34 652.948 341.948 653.3 341.419C653.658 340.891 653.837 340.217 653.837 339.399ZM661.544 336.877V344.752H659.532V331.661H661.475V333.706H661.646C661.953 333.041 662.419 332.507 663.044 332.104C663.669 331.695 664.475 331.49 665.464 331.49C666.35 331.49 667.126 331.672 667.791 332.036C668.456 332.394 668.973 332.939 669.342 333.672C669.711 334.399 669.896 335.32 669.896 336.433V344.752H667.885V336.57C667.885 335.541 667.618 334.74 667.083 334.166C666.549 333.587 665.816 333.297 664.885 333.297C664.243 333.297 663.669 333.436 663.163 333.715C662.663 333.993 662.268 334.399 661.978 334.933C661.689 335.467 661.544 336.115 661.544 336.877ZM678.515 345.024C677.424 345.024 676.461 344.749 675.625 344.198C674.79 343.641 674.137 342.857 673.665 341.845C673.194 340.828 672.958 339.627 672.958 338.24C672.958 336.865 673.194 335.672 673.665 334.661C674.137 333.649 674.793 332.868 675.634 332.317C676.475 331.766 677.446 331.49 678.549 331.49C679.401 331.49 680.074 331.632 680.569 331.916C681.069 332.195 681.449 332.513 681.711 332.871C681.978 333.223 682.185 333.513 682.333 333.74H682.503V327.297H684.515V344.752H682.571V342.74H682.333C682.185 342.979 681.975 343.28 681.702 343.644C681.429 344.002 681.04 344.323 680.534 344.607C680.029 344.885 679.355 345.024 678.515 345.024ZM678.787 343.217C679.594 343.217 680.276 343.007 680.833 342.587C681.39 342.161 681.813 341.573 682.103 340.823C682.392 340.067 682.537 339.195 682.537 338.206C682.537 337.229 682.395 336.374 682.111 335.641C681.827 334.902 681.407 334.328 680.85 333.919C680.293 333.504 679.605 333.297 678.787 333.297C677.935 333.297 677.225 333.516 676.657 333.953C676.094 334.385 675.671 334.973 675.387 335.717C675.108 336.456 674.969 337.286 674.969 338.206C674.969 339.138 675.111 339.985 675.395 340.746C675.685 341.502 676.111 342.104 676.674 342.553C677.242 342.996 677.946 343.217 678.787 343.217ZM697.887 327.297L697.716 339.842H695.739L695.569 327.297H697.887ZM696.728 344.888C696.307 344.888 695.946 344.737 695.645 344.436C695.344 344.135 695.194 343.774 695.194 343.354C695.194 342.933 695.344 342.573 695.645 342.271C695.946 341.97 696.307 341.82 696.728 341.82C697.148 341.82 697.509 341.97 697.81 342.271C698.111 342.573 698.262 342.933 698.262 343.354C698.262 343.632 698.191 343.888 698.049 344.121C697.912 344.354 697.728 344.541 697.495 344.683C697.267 344.82 697.012 344.888 696.728 344.888ZM418.886 363.661V365.365H412.102V363.661H418.886ZM414.079 360.524H416.09V373.002C416.09 373.57 416.173 373.996 416.337 374.28C416.508 374.558 416.724 374.746 416.985 374.842C417.252 374.933 417.533 374.979 417.829 374.979C418.05 374.979 418.232 374.967 418.374 374.945C418.516 374.916 418.63 374.894 418.715 374.877L419.124 376.683C418.988 376.735 418.798 376.786 418.553 376.837C418.309 376.894 417.999 376.922 417.624 376.922C417.056 376.922 416.499 376.8 415.954 376.556C415.414 376.311 414.965 375.939 414.607 375.439C414.255 374.939 414.079 374.308 414.079 373.547V360.524ZM421.911 376.752V363.661H423.854V365.638H423.991C424.229 364.99 424.661 364.465 425.286 364.061C425.911 363.658 426.616 363.456 427.4 363.456C427.548 363.456 427.732 363.459 427.954 363.465C428.175 363.47 428.343 363.479 428.457 363.49V365.536C428.388 365.519 428.232 365.493 427.988 365.459C427.749 365.419 427.496 365.399 427.229 365.399C426.593 365.399 426.025 365.533 425.525 365.8C425.031 366.061 424.638 366.425 424.349 366.891C424.065 367.351 423.923 367.877 423.923 368.467V376.752H421.911ZM432.535 381.661C432.194 381.661 431.89 381.632 431.623 381.575C431.356 381.524 431.171 381.473 431.069 381.422L431.58 379.649C432.069 379.774 432.501 379.82 432.876 379.786C433.251 379.752 433.583 379.584 433.873 379.283C434.168 378.987 434.438 378.507 434.683 377.842L435.058 376.82L430.217 363.661H432.398L436.012 374.092H436.148L439.762 363.661H441.944L436.387 378.661C436.137 379.337 435.827 379.896 435.458 380.34C435.089 380.789 434.66 381.121 434.171 381.337C433.688 381.553 433.143 381.661 432.535 381.661ZM460.621 366.592L458.815 367.104C458.701 366.803 458.533 366.51 458.312 366.226C458.096 365.936 457.8 365.698 457.425 365.51C457.05 365.323 456.57 365.229 455.985 365.229C455.184 365.229 454.516 365.414 453.982 365.783C453.454 366.146 453.19 366.61 453.19 367.172C453.19 367.672 453.371 368.067 453.735 368.357C454.099 368.646 454.667 368.888 455.44 369.081L457.383 369.558C458.553 369.842 459.425 370.277 459.999 370.862C460.573 371.442 460.86 372.189 460.86 373.104C460.86 373.854 460.644 374.524 460.212 375.115C459.786 375.706 459.19 376.172 458.423 376.513C457.656 376.854 456.763 377.024 455.746 377.024C454.411 377.024 453.306 376.735 452.431 376.155C451.556 375.575 451.002 374.729 450.769 373.615L452.678 373.138C452.86 373.842 453.204 374.371 453.71 374.723C454.221 375.075 454.888 375.252 455.712 375.252C456.65 375.252 457.394 375.053 457.945 374.655C458.502 374.252 458.781 373.769 458.781 373.206C458.781 372.752 458.621 372.371 458.303 372.064C457.985 371.752 457.496 371.519 456.837 371.365L454.656 370.854C453.457 370.57 452.576 370.129 452.013 369.533C451.457 368.931 451.178 368.178 451.178 367.274C451.178 366.536 451.386 365.882 451.8 365.314C452.221 364.746 452.792 364.3 453.513 363.976C454.241 363.652 455.065 363.49 455.985 363.49C457.281 363.49 458.298 363.774 459.036 364.342C459.781 364.911 460.309 365.661 460.621 366.592ZM469.376 377.024C468.115 377.024 467.027 376.746 466.112 376.189C465.203 375.627 464.501 374.842 464.007 373.837C463.518 372.825 463.274 371.649 463.274 370.308C463.274 368.967 463.518 367.786 464.007 366.763C464.501 365.735 465.189 364.933 466.07 364.36C466.956 363.78 467.99 363.49 469.172 363.49C469.854 363.49 470.527 363.604 471.192 363.831C471.857 364.058 472.462 364.428 473.007 364.939C473.553 365.445 473.987 366.115 474.311 366.95C474.635 367.786 474.797 368.814 474.797 370.036V370.888H464.706V369.149H472.751C472.751 368.411 472.604 367.752 472.308 367.172C472.018 366.592 471.604 366.135 471.064 365.8C470.53 365.465 469.899 365.297 469.172 365.297C468.371 365.297 467.678 365.496 467.092 365.894C466.513 366.286 466.067 366.797 465.754 367.428C465.442 368.058 465.286 368.735 465.286 369.456V370.615C465.286 371.604 465.456 372.442 465.797 373.129C466.143 373.811 466.624 374.331 467.237 374.689C467.851 375.041 468.564 375.217 469.376 375.217C469.905 375.217 470.382 375.144 470.808 374.996C471.24 374.842 471.612 374.615 471.925 374.314C472.237 374.007 472.479 373.627 472.649 373.172L474.592 373.717C474.388 374.377 474.044 374.956 473.561 375.456C473.078 375.95 472.482 376.337 471.771 376.615C471.061 376.888 470.263 377.024 469.376 377.024ZM481.709 377.058C480.879 377.058 480.126 376.902 479.45 376.59C478.774 376.271 478.237 375.814 477.839 375.217C477.442 374.615 477.243 373.888 477.243 373.036C477.243 372.286 477.391 371.678 477.686 371.212C477.982 370.74 478.376 370.371 478.871 370.104C479.365 369.837 479.911 369.638 480.507 369.507C481.109 369.371 481.714 369.263 482.322 369.183C483.118 369.081 483.763 369.004 484.257 368.953C484.757 368.896 485.121 368.803 485.348 368.672C485.581 368.541 485.697 368.314 485.697 367.99V367.922C485.697 367.081 485.467 366.428 485.007 365.962C484.553 365.496 483.862 365.263 482.936 365.263C481.976 365.263 481.223 365.473 480.678 365.894C480.132 366.314 479.749 366.763 479.527 367.24L477.618 366.558C477.959 365.763 478.413 365.144 478.982 364.7C479.555 364.252 480.18 363.939 480.857 363.763C481.538 363.581 482.209 363.49 482.868 363.49C483.288 363.49 483.771 363.541 484.317 363.644C484.868 363.74 485.399 363.942 485.911 364.249C486.428 364.556 486.857 365.019 487.197 365.638C487.538 366.257 487.709 367.087 487.709 368.127V376.752H485.697V374.979H485.595C485.459 375.263 485.232 375.567 484.913 375.891C484.595 376.215 484.172 376.49 483.643 376.717C483.115 376.945 482.47 377.058 481.709 377.058ZM482.016 375.252C482.811 375.252 483.482 375.095 484.027 374.783C484.578 374.47 484.993 374.067 485.271 373.573C485.555 373.078 485.697 372.558 485.697 372.013V370.172C485.612 370.274 485.425 370.368 485.135 370.453C484.851 370.533 484.521 370.604 484.146 370.666C483.777 370.723 483.416 370.774 483.064 370.82C482.717 370.86 482.436 370.894 482.22 370.922C481.697 370.99 481.209 371.101 480.754 371.254C480.305 371.402 479.942 371.627 479.663 371.928C479.391 372.223 479.254 372.627 479.254 373.138C479.254 373.837 479.513 374.365 480.03 374.723C480.553 375.075 481.214 375.252 482.016 375.252ZM491.38 376.752V363.661H493.323V365.638H493.46C493.698 364.99 494.13 364.465 494.755 364.061C495.38 363.658 496.085 363.456 496.869 363.456C497.016 363.456 497.201 363.459 497.423 363.465C497.644 363.47 497.812 363.479 497.925 363.49V365.536C497.857 365.519 497.701 365.493 497.457 365.459C497.218 365.419 496.965 365.399 496.698 365.399C496.062 365.399 495.494 365.533 494.994 365.8C494.499 366.061 494.107 366.425 493.817 366.891C493.533 367.351 493.391 367.877 493.391 368.467V376.752H491.38ZM505.229 377.024C504.002 377.024 502.945 376.735 502.059 376.155C501.173 375.575 500.491 374.777 500.013 373.76C499.536 372.743 499.298 371.581 499.298 370.274C499.298 368.945 499.542 367.771 500.031 366.754C500.525 365.732 501.212 364.933 502.093 364.36C502.979 363.78 504.013 363.49 505.195 363.49C506.116 363.49 506.945 363.661 507.684 364.002C508.423 364.342 509.028 364.82 509.499 365.433C509.971 366.047 510.263 366.763 510.377 367.581H508.366C508.212 366.985 507.871 366.456 507.343 365.996C506.82 365.53 506.116 365.297 505.229 365.297C504.445 365.297 503.758 365.502 503.167 365.911C502.582 366.314 502.124 366.885 501.795 367.624C501.471 368.357 501.309 369.217 501.309 370.206C501.309 371.217 501.468 372.098 501.786 372.848C502.11 373.598 502.565 374.181 503.15 374.595C503.741 375.01 504.434 375.217 505.229 375.217C505.752 375.217 506.227 375.127 506.653 374.945C507.079 374.763 507.44 374.502 507.735 374.161C508.031 373.82 508.241 373.411 508.366 372.933H510.377C510.263 373.706 509.982 374.402 509.533 375.021C509.09 375.635 508.502 376.124 507.769 376.487C507.042 376.845 506.195 377.024 505.229 377.024ZM515.329 368.877V376.752H513.317V359.297H515.329V365.706H515.499C515.806 365.03 516.266 364.493 516.88 364.095C517.499 363.692 518.323 363.49 519.352 363.49C520.244 363.49 521.025 363.669 521.695 364.027C522.366 364.379 522.886 364.922 523.255 365.655C523.63 366.382 523.817 367.308 523.817 368.433V376.752H521.806V368.57C521.806 367.53 521.536 366.726 520.996 366.158C520.462 365.584 519.721 365.297 518.772 365.297C518.113 365.297 517.522 365.436 516.999 365.715C516.482 365.993 516.073 366.399 515.772 366.933C515.477 367.467 515.329 368.115 515.329 368.877ZM527.497 376.752V363.661H529.509V376.752H527.497ZM528.52 361.479C528.128 361.479 527.79 361.345 527.506 361.078C527.227 360.811 527.088 360.49 527.088 360.115C527.088 359.74 527.227 359.419 527.506 359.152C527.79 358.885 528.128 358.752 528.52 358.752C528.912 358.752 529.247 358.885 529.526 359.152C529.81 359.419 529.952 359.74 529.952 360.115C529.952 360.49 529.81 360.811 529.526 361.078C529.247 361.345 528.912 361.479 528.52 361.479ZM535.204 368.877V376.752H533.192V363.661H535.136V365.706H535.306C535.613 365.041 536.079 364.507 536.704 364.104C537.329 363.695 538.136 363.49 539.124 363.49C540.011 363.49 540.786 363.672 541.451 364.036C542.116 364.394 542.633 364.939 543.002 365.672C543.371 366.399 543.556 367.32 543.556 368.433V376.752H541.545V368.57C541.545 367.541 541.278 366.74 540.744 366.166C540.21 365.587 539.477 365.297 538.545 365.297C537.903 365.297 537.329 365.436 536.823 365.715C536.323 365.993 535.928 366.399 535.638 366.933C535.349 367.467 535.204 368.115 535.204 368.877ZM552.516 381.933C551.544 381.933 550.709 381.808 550.01 381.558C549.311 381.314 548.729 380.99 548.263 380.587C547.803 380.189 547.436 379.763 547.163 379.308L548.766 378.183C548.947 378.422 549.178 378.695 549.456 379.002C549.734 379.314 550.115 379.584 550.598 379.811C551.087 380.044 551.726 380.161 552.516 380.161C553.572 380.161 554.445 379.905 555.132 379.394C555.82 378.882 556.163 378.081 556.163 376.99V374.331H555.993C555.845 374.57 555.635 374.865 555.362 375.217C555.095 375.564 554.709 375.874 554.203 376.146C553.703 376.414 553.027 376.547 552.175 376.547C551.118 376.547 550.169 376.297 549.328 375.797C548.493 375.297 547.831 374.57 547.342 373.615C546.859 372.661 546.618 371.502 546.618 370.138C546.618 368.797 546.854 367.629 547.325 366.635C547.797 365.635 548.453 364.862 549.294 364.317C550.135 363.766 551.107 363.49 552.209 363.49C553.061 363.49 553.737 363.632 554.237 363.916C554.743 364.195 555.129 364.513 555.396 364.871C555.669 365.223 555.879 365.513 556.027 365.74H556.232V363.661H558.175V377.127C558.175 378.252 557.919 379.166 557.408 379.871C556.902 380.581 556.22 381.101 555.362 381.431C554.51 381.766 553.561 381.933 552.516 381.933ZM552.447 374.74C553.254 374.74 553.936 374.556 554.493 374.186C555.05 373.817 555.473 373.286 555.763 372.592C556.053 371.899 556.197 371.07 556.197 370.104C556.197 369.161 556.055 368.328 555.771 367.607C555.487 366.885 555.067 366.32 554.51 365.911C553.953 365.502 553.266 365.297 552.447 365.297C551.595 365.297 550.885 365.513 550.317 365.945C549.754 366.377 549.331 366.956 549.047 367.683C548.768 368.411 548.629 369.217 548.629 370.104C548.629 371.013 548.771 371.817 549.055 372.516C549.345 373.209 549.771 373.754 550.334 374.152C550.902 374.544 551.607 374.74 552.447 374.74ZM571.572 376.752L567.584 363.661H569.697L572.527 373.683H572.663L575.459 363.661H577.607L580.368 373.649H580.504L583.334 363.661H585.447L581.459 376.752H579.482L576.618 366.695H576.413L573.55 376.752H571.572ZM588.107 376.752V363.661H590.118V376.752H588.107ZM589.129 361.479C588.737 361.479 588.399 361.345 588.115 361.078C587.837 360.811 587.697 360.49 587.697 360.115C587.697 359.74 587.837 359.419 588.115 359.152C588.399 358.885 588.737 358.752 589.129 358.752C589.521 358.752 589.857 358.885 590.135 359.152C590.419 359.419 590.561 359.74 590.561 360.115C590.561 360.49 590.419 360.811 590.135 361.078C589.857 361.345 589.521 361.479 589.129 361.479ZM599.495 363.661V365.365H592.711V363.661H599.495ZM594.688 360.524H596.7V373.002C596.7 373.57 596.782 373.996 596.947 374.28C597.117 374.558 597.333 374.746 597.594 374.842C597.862 374.933 598.143 374.979 598.438 374.979C598.66 374.979 598.842 374.967 598.984 374.945C599.126 374.916 599.239 374.894 599.325 374.877L599.734 376.683C599.597 376.735 599.407 376.786 599.163 376.837C598.918 376.894 598.609 376.922 598.234 376.922C597.665 376.922 597.109 376.8 596.563 376.556C596.023 376.311 595.575 375.939 595.217 375.439C594.864 374.939 594.688 374.308 594.688 373.547V360.524ZM604.813 368.877V376.752H602.802V359.297H604.813V365.706H604.984C605.29 365.03 605.751 364.493 606.364 364.095C606.984 363.692 607.808 363.49 608.836 363.49C609.728 363.49 610.509 363.669 611.18 364.027C611.85 364.379 612.37 364.922 612.739 365.655C613.114 366.382 613.302 367.308 613.302 368.433V376.752H611.29V368.57C611.29 367.53 611.021 366.726 610.481 366.158C609.947 365.584 609.205 365.297 608.256 365.297C607.597 365.297 607.006 365.436 606.484 365.715C605.967 365.993 605.558 366.399 605.256 366.933C604.961 367.467 604.813 368.115 604.813 368.877ZM628.675 377.024C627.584 377.024 626.621 376.749 625.786 376.198C624.95 375.641 624.297 374.857 623.825 373.845C623.354 372.828 623.118 371.627 623.118 370.24C623.118 368.865 623.354 367.672 623.825 366.661C624.297 365.649 624.953 364.868 625.794 364.317C626.635 363.766 627.607 363.49 628.709 363.49C629.561 363.49 630.234 363.632 630.729 363.916C631.229 364.195 631.609 364.513 631.871 364.871C632.138 365.223 632.345 365.513 632.493 365.74H632.663V359.297H634.675V376.752H632.732V374.74H632.493C632.345 374.979 632.135 375.28 631.862 375.644C631.589 376.002 631.2 376.323 630.695 376.607C630.189 376.885 629.516 377.024 628.675 377.024ZM628.947 375.217C629.754 375.217 630.436 375.007 630.993 374.587C631.55 374.161 631.973 373.573 632.263 372.823C632.553 372.067 632.697 371.195 632.697 370.206C632.697 369.229 632.555 368.374 632.271 367.641C631.987 366.902 631.567 366.328 631.01 365.919C630.453 365.504 629.766 365.297 628.947 365.297C628.095 365.297 627.385 365.516 626.817 365.953C626.254 366.385 625.831 366.973 625.547 367.717C625.268 368.456 625.129 369.286 625.129 370.206C625.129 371.138 625.271 371.985 625.555 372.746C625.845 373.502 626.271 374.104 626.834 374.553C627.402 374.996 628.107 375.217 628.947 375.217ZM638.638 376.752V363.661H640.649V376.752H638.638ZM639.661 361.479C639.268 361.479 638.93 361.345 638.646 361.078C638.368 360.811 638.229 360.49 638.229 360.115C638.229 359.74 638.368 359.419 638.646 359.152C638.93 358.885 639.268 358.752 639.661 358.752C640.053 358.752 640.388 358.885 640.666 359.152C640.95 359.419 641.092 359.74 641.092 360.115C641.092 360.49 640.95 360.811 640.666 361.078C640.388 361.345 640.053 361.479 639.661 361.479ZM650.163 363.661V365.365H643.106V363.661H650.163ZM645.219 376.752V361.854C645.219 361.104 645.396 360.479 645.748 359.979C646.1 359.479 646.558 359.104 647.12 358.854C647.683 358.604 648.276 358.479 648.901 358.479C649.396 358.479 649.799 358.519 650.112 358.598C650.424 358.678 650.657 358.752 650.81 358.82L650.231 360.558C650.129 360.524 649.987 360.482 649.805 360.431C649.629 360.379 649.396 360.354 649.106 360.354C648.441 360.354 647.961 360.521 647.665 360.857C647.376 361.192 647.231 361.683 647.231 362.331V376.752H645.219ZM658.811 363.661V365.365H651.754V363.661H658.811ZM653.868 376.752V361.854C653.868 361.104 654.044 360.479 654.396 359.979C654.749 359.479 655.206 359.104 655.768 358.854C656.331 358.604 656.925 358.479 657.55 358.479C658.044 358.479 658.447 358.519 658.76 358.598C659.072 358.678 659.305 358.752 659.459 358.82L658.879 360.558C658.777 360.524 658.635 360.482 658.453 360.431C658.277 360.379 658.044 360.354 657.754 360.354C657.089 360.354 656.609 360.521 656.314 360.857C656.024 361.192 655.879 361.683 655.879 362.331V376.752H653.868ZM666.58 377.024C665.318 377.024 664.23 376.746 663.315 376.189C662.406 375.627 661.705 374.842 661.21 373.837C660.722 372.825 660.477 371.649 660.477 370.308C660.477 368.967 660.722 367.786 661.21 366.763C661.705 365.735 662.392 364.933 663.273 364.36C664.159 363.78 665.193 363.49 666.375 363.49C667.057 363.49 667.73 363.604 668.395 363.831C669.06 364.058 669.665 364.428 670.21 364.939C670.756 365.445 671.19 366.115 671.514 366.95C671.838 367.786 672 368.814 672 370.036V370.888H661.909V369.149H669.955C669.955 368.411 669.807 367.752 669.511 367.172C669.222 366.592 668.807 366.135 668.267 365.8C667.733 365.465 667.102 365.297 666.375 365.297C665.574 365.297 664.881 365.496 664.295 365.894C663.716 366.286 663.27 366.797 662.957 367.428C662.645 368.058 662.489 368.735 662.489 369.456V370.615C662.489 371.604 662.659 372.442 663 373.129C663.347 373.811 663.827 374.331 664.44 374.689C665.054 375.041 665.767 375.217 666.58 375.217C667.108 375.217 667.585 375.144 668.011 374.996C668.443 374.842 668.815 374.615 669.128 374.314C669.44 374.007 669.682 373.627 669.852 373.172L671.795 373.717C671.591 374.377 671.247 374.956 670.764 375.456C670.281 375.95 669.685 376.337 668.974 376.615C668.264 376.888 667.466 377.024 666.58 377.024ZM675.06 376.752V363.661H677.003V365.638H677.139C677.378 364.99 677.81 364.465 678.435 364.061C679.06 363.658 679.764 363.456 680.548 363.456C680.696 363.456 680.881 363.459 681.102 363.465C681.324 363.47 681.491 363.479 681.605 363.49V365.536C681.537 365.519 681.381 365.493 681.136 365.459C680.898 365.419 680.645 365.399 680.378 365.399C679.741 365.399 679.173 365.533 678.673 365.8C678.179 366.061 677.787 366.425 677.497 366.891C677.213 367.351 677.071 367.877 677.071 368.467V376.752H675.06ZM689.08 377.024C687.818 377.024 686.73 376.746 685.815 376.189C684.906 375.627 684.205 374.842 683.71 373.837C683.222 372.825 682.977 371.649 682.977 370.308C682.977 368.967 683.222 367.786 683.71 366.763C684.205 365.735 684.892 364.933 685.773 364.36C686.659 363.78 687.693 363.49 688.875 363.49C689.557 363.49 690.23 363.604 690.895 363.831C691.56 364.058 692.165 364.428 692.71 364.939C693.256 365.445 693.69 366.115 694.014 366.95C694.338 367.786 694.5 368.814 694.5 370.036V370.888H684.409V369.149H692.455C692.455 368.411 692.307 367.752 692.011 367.172C691.722 366.592 691.307 366.135 690.767 365.8C690.233 365.465 689.602 365.297 688.875 365.297C688.074 365.297 687.381 365.496 686.795 365.894C686.216 366.286 685.77 366.797 685.457 367.428C685.145 368.058 684.989 368.735 684.989 369.456V370.615C684.989 371.604 685.159 372.442 685.5 373.129C685.847 373.811 686.327 374.331 686.94 374.689C687.554 375.041 688.267 375.217 689.08 375.217C689.608 375.217 690.085 375.144 690.511 374.996C690.943 374.842 691.315 374.615 691.628 374.314C691.94 374.007 692.182 373.627 692.352 373.172L694.295 373.717C694.091 374.377 693.747 374.956 693.264 375.456C692.781 375.95 692.185 376.337 691.474 376.615C690.764 376.888 689.966 377.024 689.08 377.024ZM699.571 368.877V376.752H697.56V363.661H699.503V365.706H699.673C699.98 365.041 700.446 364.507 701.071 364.104C701.696 363.695 702.503 363.49 703.491 363.49C704.378 363.49 705.153 363.672 705.818 364.036C706.483 364.394 707 364.939 707.369 365.672C707.739 366.399 707.923 367.32 707.923 368.433V376.752H705.912V368.57C705.912 367.541 705.645 366.74 705.111 366.166C704.577 365.587 703.844 365.297 702.912 365.297C702.27 365.297 701.696 365.436 701.19 365.715C700.69 365.993 700.295 366.399 700.006 366.933C699.716 367.467 699.571 368.115 699.571 368.877ZM717.292 363.661V365.365H710.508V363.661H717.292ZM712.485 360.524H714.496V373.002C714.496 373.57 714.579 373.996 714.744 374.28C714.914 374.558 715.13 374.746 715.391 374.842C715.658 374.933 715.94 374.979 716.235 374.979C716.457 374.979 716.638 374.967 716.781 374.945C716.923 374.916 717.036 374.894 717.121 374.877L717.531 376.683C717.394 376.735 717.204 376.786 716.96 376.837C716.715 376.894 716.406 376.922 716.031 376.922C715.462 376.922 714.906 376.8 714.36 376.556C713.82 376.311 713.371 375.939 713.013 375.439C712.661 374.939 712.485 374.308 712.485 373.547V360.524ZM730.033 376.752L726.045 363.661H728.158L730.988 373.683H731.124L733.92 363.661H736.067L738.829 373.649H738.965L741.795 363.661H743.908L739.92 376.752H737.942L735.079 366.695H734.874L732.011 376.752H730.033ZM751.44 377.024C750.259 377.024 749.222 376.743 748.33 376.181C747.443 375.618 746.75 374.831 746.25 373.82C745.756 372.808 745.509 371.627 745.509 370.274C745.509 368.911 745.756 367.72 746.25 366.703C746.75 365.686 747.443 364.896 748.33 364.334C749.222 363.771 750.259 363.49 751.44 363.49C752.622 363.49 753.656 363.771 754.543 364.334C755.435 364.896 756.128 365.686 756.622 366.703C757.122 367.72 757.372 368.911 757.372 370.274C757.372 371.627 757.122 372.808 756.622 373.82C756.128 374.831 755.435 375.618 754.543 376.181C753.656 376.743 752.622 377.024 751.44 377.024ZM751.44 375.217C752.338 375.217 753.077 374.987 753.656 374.527C754.236 374.067 754.665 373.462 754.943 372.712C755.222 371.962 755.361 371.149 755.361 370.274C755.361 369.399 755.222 368.584 754.943 367.828C754.665 367.073 754.236 366.462 753.656 365.996C753.077 365.53 752.338 365.297 751.44 365.297C750.543 365.297 749.804 365.53 749.224 365.996C748.645 366.462 748.216 367.073 747.938 367.828C747.659 368.584 747.52 369.399 747.52 370.274C747.52 371.149 747.659 371.962 747.938 372.712C748.216 373.462 748.645 374.067 749.224 374.527C749.804 374.987 750.543 375.217 751.44 375.217ZM760.442 376.752V363.661H762.386V365.638H762.522C762.761 364.99 763.192 364.465 763.817 364.061C764.442 363.658 765.147 363.456 765.931 363.456C766.079 363.456 766.263 363.459 766.485 363.465C766.707 363.47 766.874 363.479 766.988 363.49V365.536C766.92 365.519 766.763 365.493 766.519 365.459C766.281 365.419 766.028 365.399 765.761 365.399C765.124 365.399 764.556 365.533 764.056 365.8C763.562 366.061 763.17 366.425 762.88 366.891C762.596 367.351 762.454 367.877 762.454 368.467V376.752H760.442ZM773.917 377.024C772.826 377.024 771.863 376.749 771.028 376.198C770.192 375.641 769.539 374.857 769.067 373.845C768.596 372.828 768.36 371.627 768.36 370.24C768.36 368.865 768.596 367.672 769.067 366.661C769.539 365.649 770.195 364.868 771.036 364.317C771.877 363.766 772.849 363.49 773.951 363.49C774.803 363.49 775.477 363.632 775.971 363.916C776.471 364.195 776.852 364.513 777.113 364.871C777.38 365.223 777.587 365.513 777.735 365.74H777.906V359.297H779.917V376.752H777.974V374.74H777.735C777.587 374.979 777.377 375.28 777.104 375.644C776.832 376.002 776.442 376.323 775.937 376.607C775.431 376.885 774.758 377.024 773.917 377.024ZM774.19 375.217C774.996 375.217 775.678 375.007 776.235 374.587C776.792 374.161 777.215 373.573 777.505 372.823C777.795 372.067 777.94 371.195 777.94 370.206C777.94 369.229 777.798 368.374 777.513 367.641C777.229 366.902 776.809 366.328 776.252 365.919C775.695 365.504 775.008 365.297 774.19 365.297C773.337 365.297 772.627 365.516 772.059 365.953C771.496 366.385 771.073 366.973 770.789 367.717C770.511 368.456 770.371 369.286 770.371 370.206C770.371 371.138 770.513 371.985 770.798 372.746C771.087 373.502 771.513 374.104 772.076 374.553C772.644 374.996 773.349 375.217 774.19 375.217ZM785.346 376.888C784.925 376.888 784.565 376.737 784.263 376.436C783.962 376.135 783.812 375.774 783.812 375.354C783.812 374.933 783.962 374.573 784.263 374.271C784.565 373.97 784.925 373.82 785.346 373.82C785.766 373.82 786.127 373.97 786.428 374.271C786.729 374.573 786.88 374.933 786.88 375.354C786.88 375.632 786.809 375.888 786.667 376.121C786.531 376.354 786.346 376.541 786.113 376.683C785.886 376.82 785.63 376.888 785.346 376.888Z" fill="#060606" fill-opacity="0.5"/>
</svg>
